{
.appVersion = "3343";
.formatVersion = 3;
DisplayStrings = (
a,
"check out my dumb fucking font.
I am ",
e,
splitc,
"Split Lip",
"Split into two units",
ABCDEFGHIJKLMNOPQRSTUVWXYZabcdefghijklmnopqrstuvwxyz,
p,
J,
GLASSJAW,
"HHOHH OOHOO
HHAHHOOAOO
HHBHHOOBOO
HHCHHOOCOO
HHDHHOODOO
HHEHHOOEOO
HHFHHOOFOO
HHGHHOOGOO
HHIHHOOIOO
HHJHHOOJOO
HHKHHOOKOO
HHLHHOOLOO
HHMHHOOMOO
HHNHHOONOO
HHPHHOOPOO
HHQHHOOQOO
HHRHHOOROO
HHSHHOOSOO
HHTHHOOTOO
HHUHHOOUOO
HHVHHOOVOO
HHWHHOOWOO
HHXHHOOXOO
HHYHHOOYOO
HHZHHOOZOO

nnonn oonoo
nnannooaoo
nnbnnooboo
nncnnoocoo
nndnnoodoo
nnennooeoo
nnfnnoofoo
nngnnoogoo
nnnnoooo
nnhnnoohoo
nninnooioo
nnjnnoojoo
nnknnookoo
nnlnnooloo
nnmnnoomoo
nnpnnoopoo
nnqnnooqoo
nnrnnooroo
nnsnnoosoo
nntnnootoo
nnunnoouoo
nnvnnoovoo
nnwnnoowoo
nnxnnooxoo
nnynnooyoo
nnznnoozoo

HHOHH OOHOO
HHAHHOOAOO
HHBHHOOBOO
HHCHHOOCOO
HHDHHOODOO
HHEHHOOEOO
HHFHHOOFOO
HHGHHOOGOO
HHIHHOOIOO
HHJHHOOJOO
HHKHHOOKOO
HHLHHOOLOO
HHMHHOOMOO
HHNHHOONOO
HHPHHOOPOO
HHQHHOOQOO
HHRHHOOROO
HHSHHOOSOO
HHTHHOOTOO
HHUHHOOUOO
HHVHHOOVOO
HHWHHOOWOO
HHXHHOOXOO
HHYHHOOYOO
HHZHHOOZOO

nnonn oonoo
nnannooaoo
nnbnnooboo
nncnnoocoo
nndnnoodoo
nnennooeoo
nnfnnoofoo
nngnnoogoo
nnnnoooo
nnhnnoohoo
nninnooioo
nnjnnoojoo
nnknnookoo
nnlnnooloo
nnmnnoomoo
nnpnnoopoo
nnqnnooqoo
nnrnnooroo
nnsnnoosoo
nntnnootoo
nnunnoouoo
nnvnnoovoo
nnwnnoowoo
nnxnnooxoo
nnynnooyoo
nnznnoozoo",
typoglycemic,
0123456789HOnot,
"2369",
s,
"this isl (absolute) horse shit.",
",",
"‘",
"‘’'
‘’'",
"!?"
);
axes = (
{
name = Weight;
tag = wght;
}
);
date = "2025-06-22 16:38:40 +0000";
familyName = Juncture;
fontMaster = (
{
axesValues = (
10
);
iconName = Light_SemiExtended;
id = m004;
metricValues = (
{
over = 16;
pos = 700;
},
{
over = 16;
pos = 650;
},
{
over = 16;
pos = 450;
},
{
over = -16;
},
{
over = -16;
pos = -200;
},
{
}
);
name = thin;
userData = {
GSCornerRadius = 15;
GSOffsetHorizontal = -36;
GSOffsetVertical = -36;
"Letterink-NibData" = {
AngleInDegrees = 45;
MainAxisWidth = 30;
MinorAxisWidth = 15;
};
};
},
{

glyphs = (
{
glyphname = A;
lastChange = "2025-07-25 03:13:32 +0000";
layers = (
{
layerId = m002;
shapes = (
{
closed = 1;
nodes = (
(153,0,l),
(389,650,l),
(278,650,l),
(41,0,l)
);
},
{
closed = 1;
nodes = (
(391,650,l),
(280,650,l),
(524,0,l),
(628,0,l)
);
},
{
closed = 1;
nodes = (
(495,207,l),
(495,297,l),
(173,297,l),
(173,207,l)
);
}
);
width = 669;
},
{
layerId = m004;
shapes = (
{
closed = 1;
nodes = (
(58,0,l),
(297,650,l),
(256,650,l),
(20,0,l)
);
},
{
closed = 1;
nodes = (
(297,650,l),
(256,650,l),
(496,0,l),
(534,0,l)
);
},
{
closed = 1;
nodes = (
(418,260,l),
(418,290,l),
(129,290,l),
(129,260,l)
);
}
);
width = 554;
}
);
metricRight = "=|";
unicode = 65;
},
{
glyphname = B;
lastChange = "2025-07-25 03:14:03 +0000";
layers = (
{
layerId = m002;
shapes = (
{
closed = 1;
nodes = (
(345,0,ls),
(452,0,o),
(540,74,o),
(540,201,cs),
(540,272,o),
(497,335,o),
(441,370,c),
(461,399,o),
(480,437,o),
(480,479,cs),
(480,577,o),
(420,650,o),
(285,650,cs),
(85,650,l),
(85,0,l)
);
},
{
closed = 1;
nodes = (
(197,299,l),
(333,299,ls),
(395,299,o),
(440,257,o),
(440,201,cs),
(440,132,o),
(395,99,o),
(333,99,cs),
(197,99,l)
);
},
{
closed = 1;
nodes = (
(197,551,l),
(285,551,ls),
(354,551,o),
(380,514,o),
(380,477,cs),
(380,436,o),
(355,399,o),
(285,398,c),
(197,398,l)
);
}
);
width = 586;
},
{
layerId = m004;
shapes = (
{
closed = 1;
nodes = (
(294,0,ls),
(411,0,o),
(474,69,o),
(474,181,cs),
(474,316,o),
(391,352,o),
(337,356,c),
(380,364,o),
(405,421,o),
(405,491,cs),
(405,561,o),
(386,650,o),
(235,650,cs),
(84,650,l),
(84,0,l)
);
},
{
closed = 1;
nodes = (
(120,332,l),
(302,332,ls),
(384,332,o),
(438,276,o),
(438,181,cs),
(438,95,o),
(391,32,o),
(302,32,cs),
(120,32,l)
);
},
{
closed = 1;
nodes = (
(120,618,l),
(248,618,ls),
(352,618,o),
(369,551,o),
(369,491,cs),
(369,444,o),
(352,364,o),
(248,364,c),
(120,364,l)
);
}
);
width = 563;
}
);
metricLeft = "=H";
unicode = 66;
},
{
glyphname = C;
lastChange = "2025-07-28 01:23:28 +0000";
layers = (
{
layerId = m002;
shapes = (
{
closed = 1;
nodes = (
(380,-16,o),
(434,-9,o),
(484,0,c),
(484,95,l),
(434,85,o),
(371,79,o),
(333,79,cs),
(247,78,o),
(165,154,o),
(165,325,cs),
(165,496,o),
(247,571,o),
(334,571,cs),
(371,571,o),
(434,565,o),
(484,555,c),
(484,650,l),
(434,659,o),
(380,666,o),
(334,666,cs),
(194,666,o),
(54,567,o),
(54,325,cs),
(54,83,o),
(194,-16,o),
(334,-16,cs)
);
}
);
width = 569;
},
{
background = {
shapes = (
{
closed = 1;
nodes = (
(201,17,o),
(99,105,o),
(99,325,cs),
(99,544,o),
(201,633,o),
(334,634,cs),
(467,633,o),
(569,544,o),
(569,325,cs),
(569,105,o),
(467,17,o),
(334,16,cs)
);
},
{
closed = 1;
nodes = (
(494,-16,o),
(608,83,o),
(608,325,cs),
(608,567,o),
(494,666,o),
(334,666,cs),
(175,666,o),
(60,567,o),
(60,325,cs),
(60,83,o),
(175,-16,o),
(334,-16,cs)
);
}
);
};
layerId = m004;
shapes = (
{
closed = 1;
nodes = (
(365,-16,o),
(432,-12,o),
(481,0,c),
(481,32,l),
(435,21,o),
(381,17,o),
(334,16,cs),
(189,15,o),
(99,119,o),
(99,325,cs),
(99,525,o),
(188,636,o),
(334,634,cs),
(381,633,o),
(435,629,o),
(481,618,c),
(481,650,l),
(432,662,o),
(365,666,o),
(334,666,cs),
(175,666,o),
(60,567,o),
(60,325,cs),
(60,83,o),
(175,-16,o),
(334,-16,cs)
);
}
);
width = 565;
}
);
metricLeft = O;
metricRight = "=H";
unicode = 67;
},
{
glyphname = D;
lastChange = "2025-07-25 03:14:17 +0000";
layers = (
{
layerId = m002;
shapes = (
{
closed = 1;
nodes = (
(85,0,l),
(298,0,ls),
(478,0,o),
(601,82,o),
(601,323,cs),
(601,558,o),
(478,650,o),
(298,650,cs),
(85,650,l)
);
},
{
closed = 1;
nodes = (
(194,555,l),
(296,555,ls),
(429,555,o),
(490,490,o),
(490,323,cs),
(490,151,o),
(429,95,o),
(296,95,cs),
(194,95,l)
);
}
);
width = 655;
},
{
layerId = m004;
shapes = (
{
closed = 1;
nodes = (
(84,0,l),
(297,0,ls),
(457,0,o),
(560,82,o),
(560,323,cs),
(560,558,o),
(457,650,o),
(297,650,cs),
(84,650,l)
);
},
{
closed = 1;
nodes = (
(120,618,l),
(295,618,ls),
(448,618,o),
(521,520,o),
(521,323,cs),
(521,121,o),
(448,32,o),
(295,32,cs),
(120,32,l)
);
}
);
width = 620;
}
);
metricLeft = "=H";
metricRight = "=O";
unicode = 68;
},
{
glyphname = E;
lastChange = "2025-07-25 03:14:24 +0000";
layers = (
{
layerId = m002;
shapes = (
{
closed = 1;
nodes = (
(85,0,l),
(495,0,l),
(495,95,l),
(194,95,l),
(194,290,l),
(358,290,l),
(358,385,l),
(194,385,l),
(194,555,l),
(495,555,l),
(495,650,l),
(85,650,l)
);
}
);
width = 554;
},
{
layerId = m004;
shapes = (
{
closed = 1;
nodes = (
(84,0,l),
(454,0,l),
(454,32,l),
(120,32,l),
(120,322,l),
(317,322,l),
(317,354,l),
(120,354,l),
(120,618,l),
(454,618,l),
(454,650,l),
(84,650,l)
);
}
);
width = 488;
}
);
metricLeft = "=H";
unicode = 69;
},
{
glyphname = F;
lastChange = "2025-07-25 03:14:30 +0000";
layers = (
{
layerId = m002;
shapes = (
{
closed = 1;
nodes = (
(85,0,l),
(194,0,l),
(194,260,l),
(368,260,l),
(368,355,l),
(194,355,l),
(194,555,l),
(485,555,l),
(485,650,l),
(85,650,l)
);
}
);
width = 539;
},
{
layerId = m004;
shapes = (
{
closed = 1;
nodes = (
(84,0,l),
(120,0,l),
(120,291,l),
(347,291,l),
(347,323,l),
(120,323,l),
(120,618,l),
(464,618,l),
(464,650,l),
(84,650,l)
);
}
);
width = 473;
}
);
metricLeft = "=H";
unicode = 70;
},
{
glyphname = G;
lastChange = "2025-07-25 03:14:30 +0000";
layers = (
{
guides = (
{
pos = (342,-100);
}
);
layerId = m002;
shapes = (
{
closed = 1;
nodes = (
(426,-16,o),
(483,5,o),
(525,45,c),
(525,-2,l),
(634,-2,l),
(634,326,l),
(409,326,l),
(409,231,l),
(525,231,l),
(525,228,l),
(523,124,o),
(439,78,o),
(353,79,cs),
(247,80,o),
(165,134,o),
(165,325,cs),
(165,516,o),
(245,571,o),
(396,571,cs),
(433,571,o),
(496,565,o),
(546,555,c),
(546,650,l),
(496,659,o),
(442,666,o),
(396,666,cs),
(192,666,o),
(54,587,o),
(54,325,cs),
(54,63,o),
(194,-16,o),
(353,-16,cs)
);
}
);
width = 709;
},
{
layerId = m004;
shapes = (
{
closed = 1;
nodes = (
(401,-16,o),
(483,20,o),
(532,93,c),
(532,-2,l),
(568,-2,l),
(568,326,l),
(395,326,l),
(395,294,l),
(532,294,l),
(532,174,l),
(512,109,o),
(447,17,o),
(335,16,cs),
(189,15,o),
(99,119,o),
(99,325,cs),
(99,525,o),
(188,635,o),
(369,633,cs),
(416,633,o),
(470,629,o),
(516,618,c),
(516,650,l),
(467,662,o),
(400,666,o),
(369,666,cs),
(175,666,o),
(60,567,o),
(60,325,cs),
(60,83,o),
(175,-16,o),
(329,-16,cs)
);
}
);
width = 642;
}
);
metricLeft = "=O";
metricRight = "=H-10";
unicode = 71;
},
{
glyphname = H;
lastChange = "2025-07-25 03:13:21 +0000";
layers = (
{
layerId = m002;
shapes = (
{
closed = 1;
nodes = (
(85,2,l),
(194,2,l),
(194,650,l),
(85,650,l)
);
},
{
closed = 1;
nodes = (
(476,2,l),
(585,2,l),
(585,650,l),
(476,650,l)
);
},
{
closed = 1;
nodes = (
(524,289,l),
(524,384,l),
(111,384,l),
(111,289,l)
);
}
);
width = 670;
},
{
layerId = m004;
shapes = (
{
closed = 1;
nodes = (
(84,2,l),
(120,2,l),
(120,650,l),
(84,650,l)
);
},
{
closed = 1;
nodes = (
(488,2,l),
(524,2,l),
(524,650,l),
(488,650,l)
);
},
{
closed = 1;
nodes = (
(493,317,l),
(493,349,l),
(110,349,l),
(110,317,l)
);
}
);
width = 608;
}
);
metricRight = "=|";
unicode = 72;
},
{
glyphname = I;
lastChange = "2025-07-25 03:14:30 +0000";
layers = (
{
layerId = m002;
shapes = (
{
closed = 1;
nodes = (
(85,650,l),
(85,0,l),
(194,0,l),
(194,650,l)
);
}
);
width = 279;
},
{
layerId = m004;
shapes = (
{
closed = 1;
nodes = (
(84,650,l),
(84,0,l),
(120,0,l),
(120,650,l)
);
}
);
width = 204;
}
);
metricLeft = H;
metricRight = H;
unicode = 73;
},
{
glyphname = J;
lastChange = "2025-07-25 03:14:30 +0000";
layers = (
{
layerId = m002;
shapes = (
{
closed = 1;
nodes = (
(347,-16,o),
(419,53,o),
(419,197,cs),
(419,650,l),
(310,650,l),
(310,207,ls),
(310,130,o),
(293,79,o),
(239,79,cs),
(201,79,o),
(128,85,o),
(78,95,c),
(78,0,l),
(128,-9,o),
(192,-16,o),
(238,-16,cs)
);
}
);
width = 504;
},
{
layerId = m004;
shapes = (
{
closed = 1;
nodes = (
(363,-16,o),
(434,37,o),
(434,197,cs),
(434,650,l),
(398,650,l),
(398,187,ls),
(398,75,o),
(346,16,o),
(277,16,cs),
(230,16,o),
(176,21,o),
(130,32,c),
(130,0,l),
(179,-12,o),
(235,-16,o),
(277,-16,cs)
);
}
);
width = 518;
}
);
metricRight = "=H";
unicode = 74;
},
{
glyphname = K;
lastChange = "2025-07-25 03:14:30 +0000";
layers = (
{
layerId = m002;
shapes = (
{
closed = 1;
nodes = (
(85,1,l),
(194,1,l),
(194,650,l),
(85,650,l)
);
},
{
closed = 1;
nodes = (
(612,0,l),
(375,407,l),
(248,407,l),
(485,0,l)
);
},
{
closed = 1;
nodes = (
(89,196,l),
(185,196,l),
(594,650,l),
(463,650,l),
(89,233,l)
);
}
);
width = 657;
},
{
layerId = m004;
shapes = (
{
closed = 1;
nodes = (
(84,1,l),
(120,1,l),
(120,650,l),
(84,650,l)
);
},
{
closed = 1;
nodes = (
(525,0,l),
(268,407,l),
(227,407,l),
(484,0,l)
);
},
{
closed = 1;
nodes = (
(88,206,l),
(100,206,l),
(477,650,l),
(432,650,l),
(88,243,l)
);
}
);
width = 582;
}
);
metricLeft = "=H";
unicode = 75;
},
{
glyphname = L;
lastChange = "2025-07-25 03:14:30 +0000";
layers = (
{
layerId = m002;
shapes = (
{
closed = 1;
nodes = (
(85,2,l),
(89,2,l),
(89,0,l),
(448,0,l),
(448,95,l),
(194,95,l),
(194,650,l),
(85,650,l)
);
}
);
width = 529;
},
{
layerId = m004;
shapes = (
{
closed = 1;
nodes = (
(84,2,l),
(88,2,l),
(88,0,l),
(447,0,l),
(447,32,l),
(120,32,l),
(120,650,l),
(84,650,l)
);
}
);
width = 493;
}
);
metricLeft = "=H";
unicode = 76;
},
{
glyphname = M;
lastChange = "2025-07-25 03:14:30 +0000";
layers = (
{
layerId = m002;
shapes = (
{
closed = 1;
nodes = (
(477,0,l),
(652,412,l),
(652,1,l),
(761,1,l),
(761,650,l),
(642,650,l),
(423,130,l),
(204,650,l),
(85,650,l),
(85,1,l),
(194,1,l),
(194,412,l),
(369,0,l)
);
}
);
width = 846;
},
{
layerId = m004;
shapes = (
{
closed = 1;
nodes = (
(408,0,l),
(688,579,l),
(688,1,l),
(720,1,l),
(720,650,l),
(688,650,l),
(402,57,l),
(116,650,l),
(84,650,l),
(84,1,l),
(116,1,l),
(116,579,l),
(396,0,l)
);
}
);
width = 804;
}
);
metricLeft = H;
metricRight = H;
unicode = 77;
},
{
glyphname = N;
lastChange = "2025-07-25 03:14:30 +0000";
layers = (
{
layerId = m002;
shapes = (
{
closed = 1;
nodes = (
(85,0,l),
(194,0,l),
(194,466,l),
(512,0,l),
(621,0,l),
(621,650,l),
(512,650,l),
(512,184,l),
(194,650,l),
(85,650,l)
);
}
);
width = 706;
},
{
layerId = m004;
shapes = (
{
closed = 1;
nodes = (
(84,0,l),
(120,0,l),
(120,585,l),
(584,0,l),
(620,0,l),
(620,650,l),
(584,650,l),
(584,65,l),
(120,650,l),
(84,650,l)
);
}
);
width = 704;
}
);
metricLeft = H;
metricRight = H;
unicode = 78;
},
{
glyphname = O;
lastChange = "2025-07-25 03:12:13 +0000";
layers = (
{
layerId = m002;
shapes = (
{
closed = 1;
nodes = (
(247,80,o),
(165,134,o),
(165,325,cs),
(165,516,o),
(247,570,o),
(353,571,cs),
(459,570,o),
(541,516,o),
(541,325,cs),
(541,134,o),
(459,80,o),
(353,79,cs)
);
},
{
closed = 1;
nodes = (
(513,-16,o),
(652,63,o),
(652,325,cs),
(652,587,o),
(513,666,o),
(353,666,cs),
(194,666,o),
(54,587,o),
(54,325,cs),
(54,63,o),
(194,-16,o),
(353,-16,cs)
);
}
);
width = 706;
},
{
layerId = m004;
shapes = (
{
closed = 1;
nodes = (
(201,17,o),
(99,85,o),
(99,325,cs),
(99,564,o),
(201,633,o),
(334,634,cs),
(467,633,o),
(569,564,o),
(569,325,cs),
(569,85,o),
(467,17,o),
(334,16,cs)
);
},
{
closed = 1;
nodes = (
(494,-16,o),
(608,63,o),
(608,325,cs),
(608,587,o),
(494,666,o),
(334,666,cs),
(175,666,o),
(60,587,o),
(60,325,cs),
(60,63,o),
(175,-16,o),
(334,-16,cs)
);
}
);
width = 668;
}
);
metricRight = "=|";
unicode = 79;
},
{
glyphname = P;
lastChange = "2025-07-25 03:14:30 +0000";
layers = (
{
layerId = m002;
shapes = (
{
closed = 1;
nodes = (
(194,0,l),
(194,650,l),
(85,650,l),
(85,0,l)
);
},
{
closed = 1;
nodes = (
(136,206,l),
(283,206,ls),
(394,206,o),
(507,262,o),
(507,429,cs),
(507,596,o),
(394,650,o),
(283,650,cs),
(136,650,l),
(136,555,l),
(273,555,ls),
(338,555,o),
(396,530,o),
(396,429,cs),
(396,328,o),
(338,301,o),
(273,301,cs),
(136,301,l)
);
}
);
width = 561;
},
{
layerId = m004;
shapes = (
{
closed = 1;
nodes = (
(120,0,l),
(120,650,l),
(84,650,l),
(84,0,l)
);
},
{
closed = 1;
nodes = (
(105,256,l),
(252,256,ls),
(363,256,o),
(434,312,o),
(434,454,cs),
(434,596,o),
(363,650,o),
(252,650,cs),
(105,650,l),
(105,618,l),
(242,618,ls),
(357,618,o),
(395,557,o),
(395,454,cs),
(395,350,o),
(357,288,o),
(242,288,cs),
(105,288,l)
);
}
);
width = 494;
}
);
metricLeft = "=H";
metricRight = "=O";
unicode = 80;
},
{
glyphname = Q;
lastChange = "2025-07-25 03:12:13 +0000";
layers = (
{
layerId = m002;
shapes = (
{
closed = 1;
nodes = (
(165,516,o),
(247,570,o),
(353,571,cs),
(459,570,o),
(541,516,o),
(541,325,cs),
(541,134,o),
(459,80,o),
(353,79,cs),
(247,80,o),
(165,134,o),
(165,325,cs)
);
},
{
closed = 1;
nodes = (
(54,63,o),
(194,-16,o),
(353,-16,cs),
(513,-16,o),
(652,63,o),
(652,325,cs),
(652,587,o),
(513,666,o),
(353,666,cs),
(194,666,o),
(54,587,o),
(54,325,cs)
);
},
{
closed = 1;
nodes = (
(457,96,l),
(582,-54,l),
(666,16,l),
(541,166,l)
);
}
);
width = 706;
},
{
background = {
shapes = (
{
closed = 1;
nodes = (
(201,17,o),
(99,105,o),
(99,325,cs),
(99,544,o),
(201,633,o),
(334,634,cs),
(467,633,o),
(569,544,o),
(569,325,cs),
(569,105,o),
(467,17,o),
(334,16,cs)
);
},
{
closed = 1;
nodes = (
(494,-16,o),
(608,83,o),
(608,325,cs),
(608,567,o),
(494,666,o),
(334,666,cs),
(175,666,o),
(60,567,o),
(60,325,cs),
(60,83,o),
(175,-16,o),
(334,-16,cs)
);
}
);
};
layerId = m004;
shapes = (
{
closed = 1;
nodes = (
(99,564,o),
(202,633,o),
(334,634,cs),
(466,633,o),
(569,565,o),
(569,325,cs),
(569,86,o),
(466,17,o),
(334,16,cs),
(202,17,o),
(99,86,o),
(99,325,cs)
);
},
{
closed = 1;
nodes = (
(60,63,o),
(175,-16,o),
(334,-16,cs),
(494,-16,o),
(608,63,o),
(608,325,cs),
(608,587,o),
(494,666,o),
(334,666,cs),
(175,666,o),
(60,587,o),
(60,325,cs)
);
},
{
closed = 1;
nodes = (
(501,73,l),
(589,-33,l),
(621,-6,l),
(532,102,l)
);
}
);
width = 667;
}
);
metricLeft = "=O";
metricRight = "=O-14";
unicode = 81;
},
{
glyphname = R;
lastChange = "2025-07-25 03:14:30 +0000";
layers = (
{
layerId = m002;
shapes = (
{
closed = 1;
nodes = (
(197,0,l),
(197,650,l),
(85,650,l),
(85,0,l)
);
},
{
closed = 1;
nodes = (
(306,226,ls),
(417,226,o),
(530,282,o),
(530,439,cs),
(530,596,o),
(417,650,o),
(306,650,cs),
(99,650,l),
(99,551,l),
(306,551,ls),
(361,551,o),
(419,520,o),
(419,439,cs),
(419,358,o),
(361,325,o),
(306,325,cs),
(99,325,l),
(99,226,l)
);
},
{
closed = 1;
nodes = (
(529,0,l),
(373,298,l),
(266,298,l),
(412,0,l)
);
}
);
width = 589;
},
{
layerId = m004;
shapes = (
{
closed = 1;
nodes = (
(120,0,l),
(120,650,l),
(84,650,l),
(84,0,l)
);
},
{
closed = 1;
nodes = (
(292,276,ls),
(403,276,o),
(474,332,o),
(474,464,cs),
(474,596,o),
(403,650,o),
(292,650,cs),
(105,650,l),
(105,618,l),
(282,618,ls),
(397,618,o),
(435,557,o),
(435,464,cs),
(435,370,o),
(397,308,o),
(282,308,cs),
(105,308,l),
(105,276,l)
);
},
{
closed = 1;
nodes = (
(492,0,l),
(322,298,l),
(285,298,l),
(451,0,l)
);
}
);
width = 530;
}
);
metricLeft = "=H";
unicode = 82;
},
{
glyphname = S;
lastChange = "2025-07-28 01:15:01 +0000";
layers = (
{
layerId = m002;
shapes = (
{
closed = 1;
nodes = (
(402,-16,o),
(469,72,o),
(469,165,cs),
(469,265,o),
(414,323,o),
(309,365,cs),
(255,387,ls),
(197,414,o),
(169,442,o),
(169,495,cs),
(169,562,o),
(213,571,o),
(261,571,cs),
(299,571,o),
(372,565,o),
(422,555,c),
(422,650,l),
(372,659,o),
(308,666,o),
(262,666,cs),
(160,666,o),
(79,614,o),
(79,486,cs),
(79,371,o),
(147,338,o),
(216,303,cs),
(271,280,ls),
(330,255,o),
(379,236,o),
(379,165,cs),
(379,109,o),
(334,79,o),
(257,79,cs),
(220,79,o),
(147,85,o),
(97,95,c),
(97,0,l),
(147,-9,o),
(211,-16,o),
(257,-16,cs)
);
}
);
width = 525;
},
{
layerId = m004;
shapes = (
{
closed = 1;
nodes = (
(350,-16,o),
(459,35,o),
(459,155,cs),
(459,256,o),
(393,307,o),
(312,338,cs),
(231,369,ls),
(169,393,o),
(109,426,o),
(109,515,cs),
(109,591,o),
(173,634,o),
(252,633,cs),
(299,633,o),
(353,629,o),
(399,618,c),
(399,650,l),
(350,662,o),
(283,666,o),
(252,666,cs),
(164,666,o),
(75,615,o),
(75,506,cs),
(75,409,o),
(138,364,o),
(210,336,cs),
(283,308,ls),
(348,283,o),
(423,248,o),
(423,155,cs),
(423,59,o),
(332,16,o),
(242,16,cs),
(195,17,o),
(141,21,o),
(95,32,c),
(95,0,l),
(144,-12,o),
(211,-16,o),
(242,-16,cs)
);
}
);
width = 489;
}
);
unicode = 83;
},
{
glyphname = T;
lastChange = "2025-07-25 03:12:13 +0000";
layers = (
{
layerId = m002;
shapes = (
{
closed = 1;
nodes = (
(36,650,l),
(36,555,l),
(217,555,l),
(217,2,l),
(326,2,l),
(326,555,l),
(507,555,l),
(507,650,l)
);
}
);
width = 543;
},
{
layerId = m004;
shapes = (
{
closed = 1;
nodes = (
(11,650,l),
(11,618,l),
(212,618,l),
(212,2,l),
(248,2,l),
(248,618,l),
(449,618,l),
(449,650,l)
);
}
);
width = 460;
}
);
metricRight = "=|";
unicode = 84;
},
{
glyphname = U;
lastChange = "2025-07-25 03:14:30 +0000";
layers = (
{
layerId = m002;
shapes = (
{
closed = 1;
nodes = (
(506,650,l),
(615,650,l),
(615,257,ls),
(615,73,o),
(543,-16,o),
(345,-16,cs),
(147,-16,o),
(75,73,o),
(75,257,cs),
(75,650,l),
(184,650,l),
(184,257,ls),
(184,130,o),
(220,79,o),
(345,79,cs),
(470,79,o),
(506,130,o),
(506,257,cs)
);
}
);
width = 690;
},
{
layerId = m004;
shapes = (
{
closed = 1;
nodes = (
(515,650,l),
(554,650,l),
(554,247,ls),
(554,73,o),
(492,-16,o),
(314,-16,cs),
(136,-16,o),
(74,73,o),
(74,247,cs),
(74,650,l),
(113,650,l),
(113,247,ls),
(113,86,o),
(171,16,o),
(314,16,cs),
(457,16,o),
(515,85,o),
(515,247,cs)
);
}
);
width = 628;
}
);
metricLeft = "=H-10";
metricRight = "=|";
unicode = 85;
},
{
glyphname = V;
lastChange = "2025-07-25 03:12:13 +0000";
layers = (
{
layerId = m002;
shapes = (
{
closed = 1;
nodes = (
(344,0,l),
(581,650,l),
(471,650,l),
(296,138,l),
(306,138,l),
(130,650,l),
(20,650,l),
(257,0,l)
);
}
);
width = 601;
},
{
layerId = m004;
shapes = (
{
closed = 1;
nodes = (
(304,0,l),
(541,650,l),
(502,651,l),
(275,20,l),
(287,20,l),
(60,650,l),
(21,650,l),
(258,0,l)
);
}
);
width = 562;
}
);
metricRight = "=|";
unicode = 86;
},
{
glyphname = W;
lastChange = "2025-07-25 03:12:13 +0000";
layers = (
{
layerId = m002;
shapes = (
{
closed = 1;
nodes = (
(193,0,l),
(284,0,l),
(443,532,l),
(407,531,l),
(573,0,l),
(664,0,l),
(839,650,l),
(734,650,l),
(600,123,l),
(636,123,l),
(475,650,l),
(374,650,l),
(221,123,l),
(259,123,l),
(125,650,l),
(20,650,l)
);
}
);
width = 859;
},
{
layerId = m004;
shapes = (
{
closed = 1;
nodes = (
(268,0,l),
(306,0,l),
(467,637,l),
(440,637,l),
(614,0,l),
(649,0,l),
(847,650,l),
(812,650,l),
(629,28,l),
(640,28,l),
(471,650,l),
(436,650,l),
(277,28,l),
(290,28,l),
(105,650,l),
(70,650,l)
);
}
);
width = 917;
}
);
metricRight = "=|";
unicode = 87;
},
{
glyphname = X;
lastChange = "2025-07-28 02:19:59 +0000";
layers = (
{
layerId = m002;
shapes = (
{
closed = 1;
nodes = (
(166,650,l),
(49,650,l),
(500,1,l),
(616,1,l)
);
},
{
closed = 1;
nodes = (
(369,288,l),
(616,650,l),
(499,650,l),
(315,377,l)
);
},
{
closed = 1;
nodes = (
(305,377,l),
(49,1,l),
(165,1,l),
(359,288,l)
);
}
);
width = 665;
},
{
layerId = m004;
shapes = (
{
closed = 1;
nodes = (
(75,650,l),
(34,650,l),
(495,1,l),
(535,1,l)
);
},
{
closed = 1;
nodes = (
(301,316,l),
(535,650,l),
(494,650,l),
(280,344,l)
);
},
{
closed = 1;
nodes = (
(274,344,l),
(34,1,l),
(74,1,l),
(295,316,l)
);
}
);
width = 569;
}
);
metricRight = "=|";
unicode = 88;
},
{
glyphname = Y;
lastChange = "2025-07-25 03:12:13 +0000";
layers = (
{
layerId = m002;
shapes = (
{
closed = 1;
nodes = (
(215,259,l),
(215,0,l),
(324,0,l),
(324,259,l),
(519,650,l),
(413,650,l),
(261,327,l),
(280,327,l),
(127,650,l),
(20,650,l)
);
}
);
width = 539;
},
{
layerId = m004;
shapes = (
{
closed = 1;
nodes = (
(222,259,l),
(222,0,l),
(258,0,l),
(258,259,l),
(474,650,l),
(435,650,l),
(227,268,l),
(253,268,l),
(44,650,l),
(5,650,l)
);
}
);
width = 479;
}
);
metricRight = "=|";
unicode = 89;
},
{
glyphname = Z;
lastChange = "2025-07-25 03:14:30 +0000";
layers = (
{
layerId = m002;
shapes = (
{
closed = 1;
nodes = (
(85,95,l),
(208,95,l),
(519,555,l),
(396,555,l)
);
},
{
closed = 1;
nodes = (
(85,95,l),
(85,0,l),
(519,0,l),
(519,95,l)
);
},
{
closed = 1;
nodes = (
(85,650,l),
(85,555,l),
(519,555,l),
(519,650,l)
);
}
);
width = 604;
},
{
layerId = m004;
shapes = (
{
closed = 1;
nodes = (
(84,32,l),
(128,32,l),
(518,618,l),
(474,618,l)
);
},
{
closed = 1;
nodes = (
(84,32,l),
(84,0,l),
(518,0,l),
(518,32,l)
);
},
{
closed = 1;
nodes = (
(84,650,l),
(84,618,l),
(518,618,l),
(518,650,l)
);
}
);
width = 602;
}
);
metricLeft = H;
metricRight = "=|";
unicode = 90;
},
{
glyphname = a;
lastChange = "2025-07-28 02:19:14 +0000";
layers = (
{
layerId = m002;
shapes = (
{
closed = 1;
nodes = (
(187,280,ls),
(50,280,o),
(19,195,o),
(19,122,cs),
(19,62,o),
(71,-17,o),
(181,-17,cs),
(252,-17,o),
(298,11,o),
(315,52,c),
(306,155,l),
(292,85,o),
(243,60,o),
(201,60,cs),
(152,60,o),
(111,82,o),
(111,132,cs),
(111,178,o),
(142,202,o),
(210,202,c),
(306,202,l),
(306,280,l)
);
},
{
closed = 1;
nodes = (
(81,363,l),
(123,369,o),
(166,380,o),
(208,380,cs),
(229,380,o),
(306,373,o),
(306,312,cs),
(305,56,l),
(315,52,l),
(318,52,l),
(332,0,l),
(411,0,l),
(412,314,ls),
(412,428,o),
(299,467,o),
(214,467,cs),
(170,467,o),
(125,456,o),
(81,450,c)
);
}
);
width = 466;
},
{
layerId = m004;
shapes = (
{
closed = 1;
nodes = (
(207,248,ls),
(82,248,o),
(39,190,o),
(39,110,cs),
(39,42,o),
(91,-17,o),
(201,-17,cs),
(252,-17,o),
(328,11,o),
(345,52,c),
(345,101,l),
(316,12,o),
(224,13,o),
(191,13,cs),
(129,13,o),
(75,49,o),
(75,120,cs),
(75,179,o),
(116,218,o),
(203,218,c),
(336,218,l),
(336,248,l)
);
},
{
closed = 1;
nodes = (
(75,418,l),
(118,431,o),
(161,440,o),
(213,435,cs),
(245,432,o),
(336,415,o),
(336,305,cs),
(336,57,l),
(336,50,l),
(336,50,l),
(336,0,l),
(370,0,l),
(371,314,ls),
(371,428,o),
(258,467,o),
(193,467,cs),
(161,467,o),
(104,459,o),
(75,450,c)
);
}
);
width = 445;
}
);
metricLeft = "=o-20";
metricRight = "=n-10";
unicode = 97;
},
{
glyphname = b;
lastChange = "2025-07-24 16:01:56 +0000";
layers = (
{
layerId = m002;
shapes = (
{
closed = 1;
nodes = (
(398,-16,o),
(488,36,o),
(488,223,cs),
(488,420,o),
(388,463,o),
(281,463,cs),
(202,463,o),
(110,423,o),
(110,263,c),
(115,213,l),
(115,46,o),
(182,-16,o),
(281,-16,cs)
);
},
{
closed = 1;
nodes = (
(134,0,l),
(147,43,l),
(170,43,l),
(170,150,l),
(116,248,l),
(170,299,l),
(170,700,l),
(64,700,l),
(64,550,o),
(64,150,o),
(64,0,c)
);
},
{
closed = 1;
nodes = (
(214,70,o),
(167,116,o),
(166,223,c),
(167,340,o),
(214,377,o),
(272,377,cs),
(326,377,o),
(383,359,o),
(383,223,cs),
(383,96,o),
(336,70,o),
(272,70,cs)
);
}
);
width = 527;
},
{
layerId = m004;
shapes = (
{
closed = 1;
nodes = (
(345,-16,o),
(434,37,o),
(434,225,cs),
(434,418,o),
(344,463,o),
(251,463,cs),
(187,463,o),
(86,423,o),
(86,263,c),
(85,213,l),
(85,46,o),
(168,-16,o),
(247,-16,cs)
);
},
{
closed = 1;
nodes = (
(104,0,l),
(117,0,l),
(118,0,l),
(118,120,l),
(102,248,l),
(118,329,l),
(118,700,l),
(84,700,l),
(84,550,o),
(84,150,o),
(84,0,c)
);
},
{
closed = 1;
nodes = (
(176,14,o),
(111,73,o),
(111,223,c),
(114,387,o),
(188,433,o),
(245,433,cs),
(308,433,o),
(398,411,o),
(398,224,cs),
(398,49,o),
(318,14,o),
(243,14,cs)
);
}
);
width = 493;
}
);
metricLeft = n;
metricRight = o;
unicode = 98;
},
{
glyphname = c;
lastChange = "2025-07-24 16:01:56 +0000";
layers = (
{
background = {
shapes = (
{
closed = 1;
nodes = (
(145,331,o),
(185,378,o),
(248,378,cs),
(294,378,o),
(317,367,o),
(347,320,c),
(418,373,l),
(389,435,o),
(320,466,o),
(248,466,cs),
(137,466,o),
(39,394,o),
(39,225,cs),
(39,56,o),
(137,-16,o),
(248,-16,cs),
(320,-16,o),
(389,15,o),
(418,77,c),
(347,130,l),
(318,92,o),
(294,72,o),
(248,72,cs),
(185,72,o),
(145,119,o),
(145,225,cs)
);
}
);
};
layerId = m002;
shapes = (
{
closed = 1;
nodes = (
(280,-16,o),
(344,-13,o),
(388,0,c),
(388,88,l),
(331,73,o),
(274,72,o),
(248,72,cs),
(185,72,o),
(145,119,o),
(145,225,cs),
(145,331,o),
(185,378,o),
(248,378,cs),
(274,378,o),
(331,377,o),
(388,362,c),
(388,450,l),
(344,463,o),
(280,466,o),
(248,466,cs),
(137,466,o),
(39,394,o),
(39,225,cs),
(39,56,o),
(137,-16,o),
(248,-16,cs)
);
}
);
width = 441;
},
{
layerId = m004;
shapes = (
{
closed = 1;
nodes = (
(291,-16,o),
(355,-13,o),
(399,0,c),
(399,30,l),
(342,15,o),
(285,14,o),
(269,14,cs),
(180,14,o),
(95,75,o),
(95,225,cs),
(95,374,o),
(179,436,o),
(268,436,cs),
(284,436,o),
(341,435,o),
(398,420,c),
(398,450,l),
(354,463,o),
(290,466,o),
(268,466,cs),
(157,466,o),
(59,394,o),
(59,225,cs),
(59,56,o),
(157,-16,o),
(269,-16,cs)
);
}
);
width = 461;
}
);
metricLeft = "=o";
unicode = 99;
},
{
glyphname = d;
lastChange = "2025-07-24 16:01:56 +0000";
layers = (
{
layerId = m002;
shapes = (
{
closed = 1;
nodes = (
(463,700,l),
(357,700,l),
(357,299,l),
(411,248,l),
(357,150,l),
(357,43,l),
(380,43,l),
(393,0,l),
(463,0,l)
);
},
{
closed = 1;
nodes = (
(345,-16,o),
(412,46,o),
(412,213,c),
(417,263,l),
(417,423,o),
(325,463,o),
(246,463,cs),
(139,463,o),
(39,420,o),
(39,223,cs),
(39,36,o),
(139,-16,o),
(246,-16,cs)
);
},
{
closed = 1;
nodes = (
(201,70,o),
(144,96,o),
(144,223,cs),
(144,359,o),
(201,377,o),
(255,377,cs),
(313,377,o),
(360,340,o),
(361,223,c),
(360,116,o),
(313,70,o),
(255,70,cs)
);
}
);
width = 527;
},
{
layerId = m004;
shapes = (
{
closed = 1;
nodes = (
(409,700,l),
(375,700,l),
(375,329,l),
(391,248,l),
(375,120,l),
(375,0,l),
(376,0,l),
(389,0,l),
(409,0,l)
);
},
{
closed = 1;
nodes = (
(325,-16,o),
(408,46,o),
(408,213,c),
(407,263,l),
(407,423,o),
(306,463,o),
(242,463,cs),
(149,463,o),
(59,418,o),
(59,225,cs),
(59,37,o),
(148,-16,o),
(246,-16,cs)
);
},
{
closed = 1;
nodes = (
(175,14,o),
(95,49,o),
(95,224,cs),
(95,411,o),
(185,433,o),
(248,433,cs),
(305,433,o),
(379,387,o),
(382,223,c),
(382,73,o),
(317,14,o),
(250,14,cs)
);
}
);
width = 493;
}
);
metricLeft = o;
metricRight = n;
unicode = 100;
},
{
glyphname = e;
lastChange = "2025-07-25 02:52:32 +0000";
layers = (
{
layerId = m002;
shapes = (
{
closed = 1;
nodes = (
(300,-16,o),
(363,-10,o),
(398,0,c),
(398,88,l),
(350,75,o),
(294,72,o),
(258,72,cs),
(203,72,o),
(159,96,o),
(147,187,c),
(450,186,l),
(451,199,o),
(452,211,o),
(452,225,cs),
(452,423,o),
(369,466,o),
(258,466,cs),
(147,466,o),
(39,415,o),
(39,225,cs),
(39,36,o),
(157,-16,o),
(258,-16,cs)
);
},
{
closed = 1;
nodes = (
(148,362,o),
(194,378,o),
(252,378,cs),
(311,378,o),
(346,362,o),
(346,267,c),
(148,268,l)
);
}
);
width = 491;
},
{
background = {
shapes = (
{
closed = 1;
nodes = (
(95,375,o),
(180,436,o),
(269,436,cs),
(334,436,o),
(367,426,o),
(409,360,c),
(438,373,l),
(409,435,o),
(340,466,o),
(268,466,cs),
(157,466,o),
(59,394,o),
(59,225,cs),
(59,56,o),
(157,-16,o),
(268,-16,cs),
(340,-16,o),
(409,15,o),
(438,77,c),
(409,90,l),
(366,23,o),
(334,14,o),
(269,14,cs),
(180,14,o),
(95,75,o),
(95,225,cs)
);
}
);
};
layerId = m004;
shapes = (
{
closed = 1;
nodes = (
(302,-16,o),
(376,-13,o),
(420,0,c),
(420,30,l),
(353,15,o),
(296,14,o),
(279,14,cs),
(180,14,o),
(95,62,o),
(95,213,c),
(472,211,l),
(472,216,o),
(472,220,o),
(472,225,cs),
(472,424,o),
(379,466,o),
(268,466,cs),
(157,466,o),
(59,415,o),
(59,225,cs),
(59,36,o),
(157,-16,o),
(279,-16,c)
);
},
{
closed = 1;
nodes = (
(95,395,o),
(180,436,o),
(269,436,cs),
(381,436,o),
(419,397,o),
(436,242,c),
(95,242,l)
);
}
);
width = 531;
}
);
metricLeft = o;
metricRight = "=o";
unicode = 101;
},
{
glyphname = f;
lastChange = "2025-07-25 03:04:01 +0000";
layers = (
{
layerId = m002;
shapes = (
{
closed = 1;
nodes = (
(207,0,l),
(207,521,ls),
(207,547,o),
(217,562,o),
(250,562,cs),
(313,562,l),
(313,650,l),
(220,650,ls),
(147,650,o),
(101,618,o),
(101,531,cs),
(101,0,l)
);
},
{
closed = 1;
nodes = (
(313,364,l),
(313,450,l),
(15,450,l),
(15,364,l)
);
}
);
width = 328;
},
{
layerId = m004;
shapes = (
{
closed = 1;
nodes = (
(134,-10,l),
(134,607,ls),
(134,664,o),
(153,670,o),
(183,670,cs),
(239,670,l),
(239,700,l),
(183,700,ls),
(126,700,o),
(100,680,o),
(100,617,cs),
(100,-10,l)
);
},
{
closed = 1;
nodes = (
(239,420,l),
(239,450,l),
(35,450,l),
(35,420,l)
);
}
);
width = 328;
}
);
unicode = 102;
},
{
glyphname = g;
lastChange = "2025-07-25 19:05:55 +0000";
layers = (
{
background = {
shapes = (
{
closed = 1;
nodes = (
(346,494,o),
(300,462,o),
(300,375,cs),
(300,357,l),
(377,357,l),
(377,367,ls),
(377,401,o),
(394,421,o),
(444,421,cs),
(460,421,l),
(460,494,l),
(419,494,ls)
);
}
);
};
layerId = m002;
shapes = (
{
closed = 1;
nodes = (
(369,-211,o),
(466,-160,o),
(466,-65,cs),
(466,10,o),
(421,81,o),
(320,81,cs),
(186,81,ls),
(85,81,o),
(40,10,o),
(40,-65,cs),
(40,-154,o),
(118,-211,o),
(248,-211,cs)
);
},
{
closed = 1;
nodes = (
(147,-129,o),
(136,-92,o),
(136,-65,cs),
(136,-27,o),
(147,-1,o),
(203,-1,cs),
(314,-1,ls),
(359,-1,o),
(370,-27,o),
(370,-65,cs),
(370,-92,o),
(359,-129,o),
(248,-129,cs)
);
},
{
closed = 1;
nodes = (
(310,0,l),
(310,81,l),
(216,81,ls),
(142,81,o),
(136,121,o),
(167,153,cs),
(209,200,l),
(144,259,l),
(81,190,ls),
(32,136,o),
(26,0,o),
(168,0,cs)
);
},
{
closed = 1;
nodes = (
(327,141,o),
(410,177,o),
(410,303,cs),
(410,420,o),
(327,466,o),
(234,466,cs),
(142,466,o),
(59,421,o),
(59,303,cs),
(59,177,o),
(142,141,o),
(234,141,cs)
);
},
{
closed = 1;
nodes = (
(183,221,o),
(151,243,o),
(151,303,cs),
(151,352,o),
(183,386,o),
(234,386,cs),
(286,386,o),
(318,353,o),
(318,304,cs),
(318,244,o),
(286,221,o),
(234,221,cs)
);
},
{
closed = 1;
nodes = (
(446,450,l),
(306,450,l),
(307,363,l),
(446,362,l)
);
}
);
width = 482;
},
{
background = {
shapes = (
{
closed = 1;
nodes = (
(352,494,o),
(333,466,o),
(333,422,cs),
(333,404,l),
(369,404,l),
(369,420,l),
(369,454,o),
(368,464,o),
(408,464,c),
(433,464,l),
(433,494,l),
(392,494,ls)
);
}
);
};
layerId = m004;
shapes = (
{
closed = 1;
nodes = (
(375,-212,o),
(452,-161,o),
(452,-86,cs),
(452,-41,o),
(427,30,o),
(326,30,cs),
(160,30,ls),
(59,30,o),
(34,-41,o),
(34,-86,cs),
(34,-155,o),
(92,-212,o),
(254,-212,cs)
);
},
{
closed = 1;
nodes = (
(66,-182,o),
(68,-129,o),
(68,-88,cs),
(68,-50,o),
(68,0,o),
(149,0,cs),
(336,0,ls),
(407,0,o),
(418,-49,o),
(418,-88,cs),
(418,-115,o),
(411,-182,o),
(251,-182,cs)
);
},
{
closed = 1;
nodes = (
(316,0,l),
(316,30,l),
(181,30,ls),
(75,30,o),
(57,104,o),
(102,159,cs),
(136,200,l),
(115,221,l),
(87,190,ls),
(39,137,o),
(32,0,o),
(174,0,cs)
);
},
{
closed = 1;
nodes = (
(333,141,o),
(416,187,o),
(416,303,cs),
(416,410,o),
(333,466,o),
(240,466,cs),
(148,466,o),
(65,411,o),
(65,303,cs),
(65,187,o),
(148,141,o),
(240,141,cs)
);
},
{
closed = 1;
nodes = (
(158,171,o),
(101,222,o),
(101,303,cs),
(101,366,o),
(158,436,o),
(240,436,cs),
(323,436,o),
(380,367,o),
(380,304,cs),
(380,224,o),
(323,171,o),
(240,171,cs)
);
},
{
closed = 1;
nodes = (
(432,450,l),
(317,450,l),
(317,420,l),
(432,420,l)
);
}
);
width = 478;
}
);
unicode = 103;
},
{
glyphname = h;
lastChange = "2025-07-24 17:44:38 +0000";
layers = (
{
background = {
shapes = (
{
closed = 1;
nodes = (
(356,0,l),
(462,0,l),
(462,306,ls),
(462,432,o),
(402,466,o),
(287,466,cs),
(157,466,o),
(101,341,o),
(94,211,c),
(170,231,l),
(171,334,o),
(186,378,o),
(270,378,cs),
(338,378,o),
(356,362,o),
(356,284,cs)
);
}
);
};
layerId = m002;
shapes = (
{
closed = 1;
nodes = (
(170,0,l),
(170,700,l),
(64,700,l),
(64,0,l)
);
},
{
closed = 1;
nodes = (
(170,213,l),
(171,316,o),
(166,380,o),
(274,380,cs),
(348,380,o),
(360,364,o),
(360,292,cs),
(360,0,l),
(466,0,l),
(466,312,ls),
(466,432,o),
(412,466,o),
(301,466,cs),
(128,466,o),
(106,333,o),
(99,213,c)
);
}
);
width = 530;
},
{
layerId = m004;
shapes = (
{
closed = 1;
nodes = (
(118,0,l),
(118,700,l),
(84,700,l),
(84,0,l)
);
},
{
closed = 1;
nodes = (
(118,284,l),
(118,395,o),
(148,437,o),
(249,437,cs),
(345,437,o),
(371,402,o),
(371,294,cs),
(371,0,l),
(405,0,l),
(405,286,ls),
(405,412,o),
(368,466,o),
(253,466,cs),
(140,466,o),
(84,417,o),
(84,284,c)
);
}
);
width = 530;
}
);
metricLeft = n;
unicode = 104;
},
{
glyphname = i;
lastChange = "2025-07-28 00:28:01 +0000";
layers = (
{
layerId = m002;
shapes = (
{
closed = 1;
nodes = (
(156,532,o),
(178,556,o),
(178,595,cs),
(178,633,o),
(156,656,o),
(116,656,cs),
(76,656,o),
(54,633,o),
(54,595,cs),
(54,556,o),
(76,532,o),
(116,532,cs)
);
},
{
closed = 1;
nodes = (
(233,-1,l),
(233,87,l),
(212,87,ls),
(179,87,o),
(170,102,o),
(170,128,cs),
(170,450,l),
(64,450,l),
(63,118,ls),
(63,31,o),
(109,-1,o),
(182,-1,cs)
);
}
);
width = 246;
},
{
layerId = m004;
shapes = (
{
closed = 1;
nodes = (
(115,569,o),
(124,578,o),
(124,594,cs),
(124,610,o),
(115,619,o),
(99,619,cs),
(83,619,o),
(74,610,o),
(74,594,cs),
(74,578,o),
(83,569,o),
(99,569,cs)
);
},
{
closed = 1;
nodes = (
(181,-10,l),
(181,20,l),
(166,20,ls),
(136,20,o),
(117,26,o),
(117,83,cs),
(117,450,l),
(83,450,l),
(83,73,ls),
(83,10,o),
(109,-10,o),
(166,-10,cs)
);
}
);
width = 216;
}
);
metricLeft = "=n-10";
unicode = 105;
},
{
glyphname = j;
lastChange = "2025-07-25 03:12:24 +0000";
layers = (
{
layerId = m002;
shapes = (
{
closed = 1;
nodes = (
(124,-200,o),
(170,-168,o),
(170,-81,cs),
(170,450,l),
(64,450,l),
(64,-71,ls),
(64,-97,o),
(54,-112,o),
(21,-112,cs),
(-42,-112,l),
(-42,-200,l),
(51,-200,ls)
);
},
{
closed = 1;
nodes = (
(152,539,o),
(178,565,o),
(178,602,cs),
(178,638,o),
(152,663,o),
(116,663,c),
(79,663,o),
(54,638,o),
(54,602,cs),
(54,565,o),
(79,539,o),
(116,539,cs)
);
}
);
width = 242;
},
{
layerId = m004;
shapes = (
{
closed = 1;
nodes = (
(91,-258,o),
(117,-238,o),
(117,-175,cs),
(117,452,l),
(83,452,l),
(83,-165,ls),
(83,-222,o),
(64,-228,o),
(34,-228,cs),
(-22,-228,l),
(-22,-258,l),
(34,-258,ls)
);
},
{
closed = 1;
nodes = (
(115,569,o),
(124,578,o),
(124,594,cs),
(124,610,o),
(115,619,o),
(99,619,cs),
(83,619,o),
(74,610,o),
(74,594,cs),
(74,578,o),
(83,569,o),
(99,569,cs)
);
}
);
width = 208;
}
);
metricLeft = "=n-106";
metricRight = "=n";
unicode = 106;
},
{
glyphname = k;
lastChange = "2025-07-24 16:01:56 +0000";
layers = (
{
layerId = m002;
shapes = (
{
closed = 1;
nodes = (
(64,0,l),
(170,0,l),
(170,700,l),
(64,700,l)
);
},
{
closed = 1;
nodes = (
(270,289,l),
(152,289,l),
(349,0,l),
(469,0,l)
);
},
{
closed = 1;
nodes = (
(92,167,l),
(169,162,l),
(444,450,l),
(310,450,l),
(92,217,l)
);
}
);
width = 479;
},
{
layerId = m004;
shapes = (
{
closed = 1;
nodes = (
(84,0,l),
(118,0,l),
(118,700,l),
(84,700,l)
);
},
{
closed = 1;
nodes = (
(213,289,l),
(172,289,l),
(369,0,l),
(412,0,l)
);
},
{
closed = 1;
nodes = (
(92,187,l),
(106,187,l),
(374,450,l),
(330,450,l),
(92,217,l)
);
}
);
width = 499;
}
);
metricLeft = n;
unicode = 107;
},
{
glyphname = l;
lastChange = "2025-07-28 00:28:13 +0000";
layers = (
{
layerId = m002;
shapes = (
{
closed = 1;
nodes = (
(234,0,l),
(234,88,l),
(213,88,ls),
(180,88,o),
(170,103,o),
(170,129,cs),
(170,710,l),
(64,710,l),
(64,119,ls),
(64,32,o),
(110,0,o),
(183,0,cs)
);
}
);
width = 247;
},
{
background = {
shapes = (
{
closed = 1;
nodes = (
(182,-10,l),
(182,20,l),
(197,20,ls),
(137,20,o),
(118,26,o),
(118,83,cs),
(118,700,l),
(84,700,l),
(84,73,ls),
(84,10,o),
(110,-10,o),
(167,-10,cs)
);
}
);
};
layerId = m004;
shapes = (
{
closed = 1;
nodes = (
(182,-10,l),
(182,20,l),
(167,20,ls),
(137,20,o),
(118,26,o),
(118,83,cs),
(118,700,l),
(84,700,l),
(84,73,ls),
(84,10,o),
(110,-10,o),
(167,-10,cs)
);
}
);
width = 217;
}
);
metricLeft = "=n";
metricRight = "=i";
unicode = 108;
},
{
glyphname = m;
lastChange = "2025-07-25 03:01:45 +0000";
layers = (
{
background = {
shapes = (
{
closed = 0;
nodes = (
(135,450,l),
(148,404,l),
(171,404,l)
);
}
);
};
layerId = m002;
shapes = (
{
closed = 1;
nodes = (
(170,0,l),
(170,404,l),
(163,404,l),
(150,450,l),
(64,450,l),
(64,0,l)
);
},
{
closed = 1;
nodes = (
(442,0,l),
(442,306,ls),
(442,432,o),
(382,466,o),
(287,466,cs),
(157,466,o),
(101,341,o),
(94,211,c),
(170,231,l),
(171,334,o),
(186,378,o),
(270,378,cs),
(318,378,o),
(336,362,o),
(336,284,cs),
(336,0,l)
);
},
{
closed = 1;
nodes = (
(724,0,l),
(724,306,ls),
(724,432,o),
(664,466,o),
(559,466,cs),
(429,466,o),
(373,341,o),
(366,211,c),
(442,231,l),
(443,334,o),
(458,378,o),
(542,378,cs),
(600,378,o),
(618,362,o),
(618,284,cs),
(618,0,l)
);
}
);
width = 788;
},
{
background = {
shapes = (
{
closed = 0;
nodes = (
(135,450,l),
(148,404,l),
(171,404,l)
);
}
);
};
layerId = m004;
shapes = (
{
closed = 1;
nodes = (
(118,0,l),
(118,413,l),
(118,450,l),
(106,450,l),
(84,450,l),
(84,0,l)
);
},
{
closed = 1;
nodes = (
(405,0,l),
(405,286,ls),
(405,412,o),
(368,466,o),
(253,466,cs),
(140,466,o),
(84,417,o),
(84,284,c),
(118,284,l),
(118,395,o),
(148,437,o),
(249,437,cs),
(345,437,o),
(371,402,o),
(371,294,cs),
(371,0,l)
);
},
{
closed = 1;
nodes = (
(692,0,l),
(692,286,ls),
(692,412,o),
(655,466,o),
(540,466,cs),
(427,466,o),
(371,417,o),
(371,284,c),
(405,284,l),
(405,395,o),
(435,437,o),
(536,437,cs),
(632,437,o),
(658,402,o),
(658,294,cs),
(658,0,l)
);
}
);
width = 776;
}
);
metricLeft = "=n";
metricRight = "=n";
unicode = 109;
},
{
glyphname = n;
lastChange = "2025-07-24 16:01:56 +0000";
layers = (
{
background = {
shapes = (
{
closed = 0;
nodes = (
(282,466,ls),
(142,466,o),
(92,323,o),
(86,213,c)
);
}
);
};
layerId = m002;
shapes = (
{
closed = 1;
nodes = (
(356,0,l),
(462,0,l),
(462,306,ls),
(462,432,o),
(402,466,o),
(287,466,cs),
(157,466,o),
(101,341,o),
(94,211,c),
(170,231,l),
(171,334,o),
(186,378,o),
(270,378,cs),
(338,378,o),
(356,362,o),
(356,284,cs)
);
},
{
closed = 1;
nodes = (
(170,398,l),
(158,398,l),
(148,450,l),
(64,450,l),
(64,0,l),
(170,0,l)
);
}
);
width = 526;
},
{
background = {
shapes = (
{
closed = 0;
nodes = (
(282,466,ls),
(142,466,o),
(92,323,o),
(86,213,c)
);
}
);
};
layerId = m004;
shapes = (
{
closed = 1;
nodes = (
(371,0,l),
(405,0,l),
(405,286,ls),
(405,412,o),
(368,466,o),
(253,466,cs),
(150,466,o),
(84,417,o),
(84,284,c),
(118,284,l),
(118,395,o),
(158,437,o),
(249,437,cs),
(345,437,o),
(371,402,o),
(371,294,cs)
);
},
{
closed = 1;
nodes = (
(118,413,l),
(118,422,l),
(118,450,l),
(84,450,l),
(84,0,l),
(118,0,l)
);
}
);
width = 489;
}
);
unicode = 110;
},
{
glyphname = o;
lastChange = "2025-07-25 19:35:51 +0000";
layers = (
{
layerId = m002;
shapes = (
{
closed = 1;
nodes = (
(373,-16,o),
(485,56,o),
(485,225,cs),
(485,393,o),
(373,466,o),
(262,466,cs),
(151,466,o),
(39,395,o),
(39,225,cs),
(39,56,o),
(151,-16,o),
(262,-16,cs)
);
},
{
closed = 1;
nodes = (
(199,72,o),
(139,119,o),
(139,225,cs),
(139,330,o),
(199,378,o),
(262,378,cs),
(325,378,o),
(385,330,o),
(385,225,cs),
(385,119,o),
(325,72,o),
(262,72,cs)
);
}
);
width = 524;
},
{
layerId = m004;
shapes = (
{
closed = 1;
nodes = (
(373,-16,o),
(485,36,o),
(485,225,cs),
(485,413,o),
(373,466,o),
(272,466,cs),
(171,466,o),
(59,415,o),
(59,225,cs),
(59,36,o),
(171,-16,o),
(272,-16,cs)
);
},
{
closed = 1;
nodes = (
(189,16,o),
(95,48,o),
(95,225,cs),
(95,401,o),
(189,434,o),
(272,434,cs),
(355,434,o),
(449,401,o),
(449,225,cs),
(449,48,o),
(355,16,o),
(272,16,cs)
);
}
);
width = 544;
}
);
metricRight = "=|";
unicode = 111;
},
{
glyphname = p;
lastChange = "2025-07-24 19:26:10 +0000";
layers = (
{
layerId = m002;
shapes = (
{
closed = 1;
nodes = (
(170,-200,l),
(170,151,l),
(116,202,l),
(170,300,l),
(170,407,l),
(157,407,l),
(144,450,l),
(64,450,l),
(64,-200,l)
);
},
{
closed = 1;
nodes = (
(388,-13,o),
(478,30,o),
(478,227,cs),
(478,414,o),
(388,466,o),
(281,466,cs),
(182,466,o),
(115,404,o),
(115,237,c),
(110,187,l),
(110,27,o),
(202,-13,o),
(281,-13,cs)
);
},
{
closed = 1;
nodes = (
(214,73,o),
(167,110,o),
(166,227,c),
(167,334,o),
(214,380,o),
(272,380,cs),
(326,380,o),
(383,354,o),
(383,227,cs),
(383,91,o),
(326,73,o),
(272,73,cs)
);
}
);
width = 517;
},
{
layerId = m004;
shapes = (
{
closed = 1;
nodes = (
(118,-200,l),
(118,121,l),
(102,202,l),
(118,330,l),
(118,450,l),
(117,450,l),
(104,450,l),
(84,450,l),
(84,-200,l)
);
},
{
closed = 1;
nodes = (
(354,-13,o),
(434,32,o),
(434,225,cs),
(434,413,o),
(355,466,o),
(247,466,cs),
(168,466,o),
(85,404,o),
(85,237,c),
(86,187,l),
(86,27,o),
(187,-13,o),
(251,-13,cs)
);
},
{
closed = 1;
nodes = (
(188,17,o),
(114,63,o),
(111,227,c),
(111,377,o),
(176,436,o),
(243,436,cs),
(328,436,o),
(398,401,o),
(398,226,cs),
(398,39,o),
(318,17,o),
(245,17,cs)
);
}
);
width = 493;
}
);
metricLeft = "=n";
metricRight = o;
unicode = 112;
},
{
glyphname = q;
lastChange = "2025-07-24 19:26:20 +0000";
layers = (
{
layerId = m002;
shapes = (
{
closed = 1;
nodes = (
(453,-200,l),
(453,450,l),
(373,450,l),
(360,407,l),
(347,407,l),
(347,300,l),
(401,202,l),
(347,151,l),
(347,-200,l)
);
},
{
closed = 1;
nodes = (
(315,-13,o),
(407,27,o),
(407,187,c),
(402,237,l),
(402,404,o),
(335,466,o),
(236,466,cs),
(129,466,o),
(39,414,o),
(39,227,cs),
(39,30,o),
(129,-13,o),
(236,-13,cs)
);
},
{
closed = 1;
nodes = (
(191,73,o),
(134,91,o),
(134,227,cs),
(134,354,o),
(191,380,o),
(245,380,cs),
(303,380,o),
(350,334,o),
(351,227,c),
(350,110,o),
(303,73,o),
(245,73,cs)
);
}
);
width = 517;
},
{
layerId = m004;
shapes = (
{
closed = 1;
nodes = (
(409,-200,l),
(409,450,l),
(389,450,l),
(376,450,l),
(375,450,l),
(375,330,l),
(391,202,l),
(375,121,l),
(375,-200,l)
);
},
{
closed = 1;
nodes = (
(306,-13,o),
(407,27,o),
(407,187,c),
(408,237,l),
(408,404,o),
(325,466,o),
(246,466,cs),
(138,466,o),
(59,413,o),
(59,225,cs),
(59,32,o),
(139,-13,o),
(242,-13,cs)
);
},
{
closed = 1;
nodes = (
(175,17,o),
(95,39,o),
(95,226,cs),
(95,401,o),
(165,436,o),
(250,436,cs),
(317,436,o),
(382,377,o),
(382,227,c),
(379,63,o),
(305,17,o),
(248,17,cs)
);
}
);
width = 493;
}
);
metricLeft = "=o";
metricRight = "=n";
unicode = 113;
},
{
glyphname = r;
lastChange = "2025-07-25 03:04:38 +0000";
layers = (
{
layerId = m002;
shapes = (
{
closed = 1;
nodes = (
(347,364,l),
(347,450,l),
(299,450,l),
(167,450,o),
(89,362,o),
(88,219,c),
(170,258,l),
(170,340,o),
(231,364,o),
(299,364,c)
);
},
{
closed = 1;
nodes = (
(170,398,l),
(158,398,l),
(148,450,l),
(64,450,l),
(64,0,l),
(170,0,l)
);
}
);
width = 352;
},
{
layerId = m004;
shapes = (
{
closed = 1;
nodes = (
(314,420,l),
(314,450,l),
(266,450,l),
(134,450,o),
(86,390,o),
(85,259,c),
(116,259,l),
(116,383,o),
(165,420,o),
(252,420,c)
);
},
{
closed = 1;
nodes = (
(118,413,l),
(118,422,l),
(118,450,l),
(84,450,l),
(84,0,l),
(118,0,l)
);
}
);
width = 371;
}
);
metricLeft = n;
unicode = 114;
},
{
glyphname = s;
lastChange = "2025-07-25 03:06:04 +0000";
layers = (
{
layerId = m002;
shapes = (
{
closed = 1;
nodes = (
(169,70,o),
(112,73,o),
(55,88,c),
(55,0,l),
(99,-13,o),
(163,-16,o),
(195,-16,cs),
(198,-16,ls),
(251,-16,o),
(332,-4,o),
(355,54,cs),
(368,87,o),
(372,140,o),
(362,175,cs),
(344,238,o),
(164,279,o),
(147,318,cs),
(141,332,o),
(142,348,o),
(147,361,cs),
(152,374,o),
(187,378,o),
(203,378,cs),
(229,378,o),
(286,377,o),
(343,362,c),
(343,450,l),
(299,463,o),
(235,466,o),
(203,466,cs),
(146,466,o),
(76,440,o),
(56,398,cs),
(42,368,o),
(39,303,o),
(56,274,cs),
(106,188,o),
(233,182,o),
(268,129,cs),
(276,117,o),
(270,96,o),
(264,87,cs),
(253,70,o),
(217,70,o),
(195,70,cs)
);
}
);
width = 412;
},
{
layerId = m004;
shapes = (
{
closed = 1;
nodes = (
(141,12,o),
(84,15,o),
(27,30,c),
(27,0,l),
(71,-13,o),
(135,-16,o),
(167,-16,cs),
(170,-16,ls),
(223,-16,o),
(295,0,o),
(320,35,cs),
(351,79,o),
(342,139,o),
(314,171,cs),
(273,217,o),
(115,255,o),
(80,315,cs),
(66,338,o),
(66,380,o),
(82,400,cs),
(109,433,o),
(149,436,o),
(175,436,cs),
(191,436,o),
(248,435,o),
(305,420,c),
(305,450,l),
(261,463,o),
(197,466,o),
(175,466,cs),
(118,466,o),
(68,440,o),
(48,398,cs),
(34,368,o),
(31,336,o),
(48,307,cs),
(98,221,o),
(252,196,o),
(290,149,cs),
(315,119,o),
(312,73,o),
(289,51,cs),
(258,22,o),
(198,12,o),
(167,12,cs)
);
}
);
width = 366;
}
);
unicode = 115;
},
{
glyphname = t;
lastChange = "2025-07-25 03:03:49 +0000";
layers = (
{
layerId = m002;
shapes = (
{
closed = 1;
nodes = (
(303,0,l),
(303,88,l),
(240,88,ls),
(207,88,o),
(197,103,o),
(197,129,cs),
(197,549,l),
(91,549,l),
(91,119,ls),
(91,32,o),
(137,0,o),
(210,0,cs)
);
},
{
closed = 1;
nodes = (
(303,363,l),
(303,450,l),
(5,450,l),
(5,362,l)
);
}
);
width = 336;
},
{
layerId = m004;
shapes = (
{
closed = 1;
nodes = (
(239,0,l),
(239,30,l),
(183,30,ls),
(153,30,o),
(134,36,o),
(134,93,cs),
(134,549,l),
(100,549,l),
(100,83,ls),
(100,20,o),
(126,0,o),
(183,0,cs)
);
},
{
closed = 1;
nodes = (
(239,420,l),
(239,450,l),
(35,450,l),
(35,420,l)
);
}
);
width = 336;
}
);
unicode = 116;
},
{
glyphname = u;
lastChange = "2025-07-25 03:05:18 +0000";
layers = (
{
layerId = m002;
shapes = (
{
closed = 1;
nodes = (
(170,450,l),
(64,450,l),
(64,144,ls),
(64,18,o),
(144,-16,o),
(229,-16,cs),
(369,-16,o),
(419,127,o),
(425,237,c),
(356,237,l),
(355,134,o),
(340,70,o),
(256,70,cs),
(208,70,o),
(170,86,o),
(170,164,cs)
);
},
{
closed = 1;
nodes = (
(356,56,l),
(368,56,l),
(384,0,l),
(462,0,l),
(462,450,l),
(356,450,l)
);
}
);
width = 526;
},
{
background = {
shapes = (
{
closed = 1;
nodes = (
(118,450,l),
(84,450,l),
(84,164,ls),
(84,38,o),
(164,-16,o),
(249,-16,cs),
(349,-16,o),
(405,29,o),
(405,166,c),
(371,166,l),
(371,54,o),
(339,13,o),
(264,13,cs),
(194,13,o),
(118,47,o),
(118,156,cs)
);
}
);
};
layerId = m004;
shapes = (
{
closed = 1;
nodes = (
(118,450,l),
(84,450,l),
(84,164,ls),
(84,38,o),
(141,-16,o),
(236,-16,cs),
(329,-16,o),
(405,33,o),
(405,166,c),
(371,166,l),
(371,55,o),
(321,13,o),
(240,13,cs),
(164,13,o),
(118,48,o),
(118,156,cs)
);
},
{
closed = 1;
nodes = (
(371,37,l),
(371,0,l),
(383,0,l),
(405,0,l),
(405,450,l),
(371,450,l)
);
}
);
width = 489;
}
);
metricLeft = "=n";
metricRight = n;
unicode = 117;
},
{
glyphname = v;
lastChange = "2025-07-25 03:06:27 +0000";
layers = (
{
layerId = m002;
shapes = (
{
closed = 1;
nodes = (
(180,1,l),
(272,1,l),
(447,450,l),
(346,450,l),
(204,70,l),
(248,70,l),
(116,450,l),
(5,450,l)
);
}
);
width = 452;
},
{
background = {
shapes = (
{
closed = 1;
nodes = (
(223,0,l),
(357,417,l),
(345,417,l),
(479,0,l),
(513,0,l),
(659,450,l),
(626,450,l),
(491,31,l),
(502,30,l),
(369,450,l),
(333,450,l),
(201,33,l),
(211,33,l),
(76,450,l),
(43,450,l),
(189,0,l)
);
}
);
};
layerId = m004;
shapes = (
{
closed = 1;
nodes = (
(189,0,l),
(223,0,l),
(369,450,l),
(333,450,l),
(201,33,l),
(211,33,l),
(77,450,l),
(43,450,l)
);
}
);
width = 452;
}
);
unicode = 118;
},
{
glyphname = w;
lastChange = "2025-07-25 03:12:24 +0000";
layers = (
{
layerId = m002;
shapes = (
{
closed = 1;
nodes = (
(244,1,l),
(351,350,l),
(324,350,l),
(442,1,l),
(543,1,l),
(671,450,l),
(573,450,l),
(482,102,l),
(498,102,l),
(387,450,l),
(289,450,l),
(187,102,l),
(204,102,l),
(103,450,l),
(5,450,l),
(143,1,l)
);
}
);
width = 676;
},
{
layerId = m004;
shapes = (
{
closed = 1;
nodes = (
(223,0,l),
(357,417,l),
(345,417,l),
(479,0,l),
(513,0,l),
(659,450,l),
(626,450,l),
(491,31,l),
(502,30,l),
(369,450,l),
(333,450,l),
(201,33,l),
(211,33,l),
(76,450,l),
(43,450,l),
(189,0,l)
);
}
);
width = 702;
}
);
metricRight = "=|";
unicode = 119;
},
{
glyphname = x;
lastChange = "2025-07-25 03:12:24 +0000";
layers = (
{
layerId = m002;
shapes = (
{
closed = 1;
nodes = (
(364,1,l),
(477,1,l),
(134,450,l),
(21,450,l)
);
},
{
closed = 1;
nodes = (
(214,263,l),
(21,1,l),
(134,1,l),
(274,194,l)
);
},
{
closed = 1;
nodes = (
(288,194,l),
(477,450,l),
(364,450,l),
(228,263,l)
);
}
);
width = 498;
},
{
layerId = m004;
shapes = (
{
closed = 1;
nodes = (
(344,1,l),
(384,1,l),
(61,450,l),
(21,450,l)
);
},
{
closed = 1;
nodes = (
(58,0,l),
(206,221,l),
(186,248,l),
(20,0,l)
);
},
{
closed = 1;
nodes = (
(209,227,l),
(358,450,l),
(319,450,l),
(192,251,l)
);
}
);
width = 404;
}
);
metricRight = "=|";
unicode = 120;
},
{
glyphname = y;
lastChange = "2025-07-24 16:01:56 +0000";
layers = (
{
background = {
shapes = (
{
closed = 1;
nodes = (
(164,2,l),
(256,2,l),
(431,451,l),
(333,451,l),
(188,71,l),
(232,71,l),
(87,451,l),
(-11,451,l)
);
}
);
};
layerId = m002;
shapes = (
{
closed = 1;
nodes = (
(185,23,l),
(184,-20,l),
(5,451,l),
(116,451,l),
(247,71,l),
(205,71,l),
(339,451,l),
(446,451,l),
(231,-104,ls),
(209,-160,o),
(169,-199,o),
(98,-199,cs),
(45,-199,o),
(58,-198,o),
(10,-198,c),
(10,-110,l),
(10,-112,o),
(55,-110,o),
(87,-110,cs),
(123,-110,o),
(140,-90,o),
(152,-60,cs)
);
}
);
width = 451;
},
{
background = {
shapes = (
{
closed = 1;
nodes = (
(189,0,l),
(223,0,l),
(369,450,l),
(333,450,l),
(201,33,l),
(211,33,l),
(77,450,l),
(43,450,l)
);
}
);
};
layerId = m004;
shapes = (
{
closed = 1;
nodes = (
(195,18,l),
(189,0,l),
(43,450,l),
(77,450,l),
(211,33,l),
(201,33,l),
(334,451,l),
(369,450,l),
(188,-105,ls),
(164,-176,o),
(136,-200,o),
(55,-200,cs),
(2,-200,o),
(24,-200,o),
(10,-200,c),
(10,-169,l),
(10,-171,o),
(55,-169,o),
(70,-169,cs),
(115,-169,o),
(143,-138,o),
(151,-113,cs)
);
}
);
width = 451;
}
);
unicode = 121;
},
{
glyphname = z;
lastChange = "2025-07-24 16:01:56 +0000";
layers = (
{
layerId = m002;
shapes = (
{
closed = 1;
nodes = (
(54,90,l),
(54,0,l),
(398,0,l),
(398,80,l),
(166,80,l),
(398,360,l),
(398,450,l),
(54,450,l),
(54,370,l),
(286,370,l)
);
}
);
width = 452;
},
{
layerId = m004;
shapes = (
{
closed = 1;
nodes = (
(74,30,l),
(74,0,l),
(418,0,l),
(418,30,l),
(111,30,l),
(418,420,l),
(418,450,l),
(74,450,l),
(74,420,l),
(381,420,l)
);
}
);
width = 492;
}
);
metricLeft = "=n-10";
metricRight = "=|";
unicode = 122;
},
{
glyphname = zero;
lastChange = "2025-07-28 01:10:09 +0000";
layers = (
{
layerId = m002;
shapes = (
{
closed = 1;
nodes = (
(141,516,o),
(193,570,o),
(269,570,cs),
(335,570,o),
(387,516,o),
(387,325,cs),
(387,134,o),
(335,80,o),
(269,80,cs),
(193,80,o),
(141,134,o),
(141,325,cs)
);
},
{
closed = 1;
nodes = (
(30,63,o),
(140,-16,o),
(269,-16,cs),
(389,-16,o),
(498,63,o),
(498,325,cs),
(498,587,o),
(389,666,o),
(269,666,cs),
(140,666,o),
(30,587,o),
(30,325,cs)
);
}
);
width = 528;
},
{
layerId = m004;
shapes = (
{
closed = 1;
nodes = (
(49,565,o),
(133,632,o),
(221,632,cs),
(295,632,o),
(379,565,o),
(379,325,cs),
(379,84,o),
(295,17,o),
(221,17,cs),
(133,17,o),
(49,84,o),
(49,325,cs)
);
},
{
closed = 1;
nodes = (
(10,63,o),
(118,-16,o),
(219,-16,cs),
(312,-16,o),
(418,63,o),
(418,325,cs),
(418,587,o),
(312,666,o),
(219,666,cs),
(118,666,o),
(10,587,o),
(10,325,cs)
);
}
);
width = 428;
}
);
unicode = 48;
},
{
glyphname = one;
lastChange = "2025-07-28 01:10:53 +0000";
layers = (
{
layerId = m002;
shapes = (
{
closed = 1;
nodes = (
(196,650,l),
(196,638,l),
(196,569,o),
(154,556,o),
(30,556,c),
(30,468,l),
(196,468,l),
(196,0,l),
(302,0,l),
(302,650,l)
);
}
);
width = 332;
},
{
layerId = m004;
shapes = (
{
closed = 1;
nodes = (
(219,650,l),
(219,638,l),
(219,589,o),
(187,576,o),
(83,576,c),
(83,546,l),
(219,546,l),
(219,0,l),
(255,0,l),
(255,650,l)
);
}
);
width = 339;
}
);
unicode = 49;
},
{
glyphname = two;
lastChange = "2025-07-28 01:19:57 +0000";
layers = (
{
layerId = m002;
shapes = (
{
closed = 1;
nodes = (
(457,0,l),
(457,95,l),
(191,95,l),
(350,263,ls),
(545,469,o),
(434,656,o),
(252,666,cs),
(166,671,o),
(112,661,o),
(52,650,c),
(52,555,l),
(112,567,o),
(175,577,o),
(243,571,cs),
(364,561,o),
(373,435,o),
(275,330,cs),
(30,66,l),
(30,0,l)
);
}
);
width = 487;
},
{
layerId = m004;
shapes = (
{
closed = 1;
nodes = (
(407,0,l),
(407,32,l),
(86,32,l),
(253,221,ls),
(414,403,o),
(493,666,o),
(202,666,cs),
(171,666,o),
(104,662,o),
(55,650,c),
(55,618,l),
(101,629,o),
(155,633,o),
(202,633,cs),
(472,635,o),
(363,395,o),
(204,215,cs),
(30,17,l),
(30,0,l)
);
}
);
width = 377;
}
);
unicode = 50;
},
{
glyphname = three;
lastChange = "2025-07-28 01:31:27 +0000";
layers = (
{
layerId = m002;
shapes = (
{
closed = 1;
nodes = (
(358,-16,o),
(457,78,o),
(457,198,cs),
(457,294,o),
(376,373,o),
(242,393,c),
(415,577,l),
(415,650,l),
(30,650,l),
(30,555,l),
(276,555,l),
(104,379,l),
(104,310,l),
(319,310,o),
(346,260,o),
(346,198,cs),
(346,145,o),
(324,79,o),
(190,79,cs),
(152,79,o),
(89,85,o),
(39,95,c),
(39,0,l),
(89,-9,o),
(143,-16,o),
(189,-16,cs)
);
}
);
width = 487;
},
{
background = {
shapes = (
{
closed = 1;
nodes = (
(328,-16,o),
(387,48,o),
(387,178,cs),
(387,294,o),
(290,359,o),
(156,359,c),
(352,627,l),
(352,650,l),
(0,650,l),
(0,618,l),
(303,618,l),
(114,359,l),
(114,330,l),
(115,330,ls),
(311,330,o),
(348,260,o),
(348,178,cs),
(348,51,o),
(294,16,o),
(160,16,cs),
(113,17,o),
(59,21,o),
(13,32,c),
(13,0,l),
(62,-12,o),
(129,-16,o),
(160,-16,cs)
);
}
);
};
layerId = m004;
shapes = (
{
closed = 1;
nodes = (
(327,-16,o),
(387,48,o),
(387,158,cs),
(387,294,o),
(290,359,o),
(156,359,c),
(352,627,l),
(352,650,l),
(0,650,l),
(0,618,l),
(303,618,l),
(114,359,l),
(114,330,l),
(311,330,o),
(353,250,o),
(352,158,cs),
(351,61,o),
(294,16,o),
(160,16,cs),
(113,16,o),
(59,21,o),
(13,32,c),
(13,0,l),
(62,-12,o),
(129,-16,o),
(159,-16,cs)
);
}
);
width = 387;
}
);
unicode = 51;
},
{
glyphname = four;
lastChange = "2025-07-28 01:32:51 +0000";
layers = (
{
layerId = m002;
shapes = (
{
closed = 1;
nodes = (
(306,650,l),
(306,0,l),
(412,0,l),
(412,650,l)
);
},
{
closed = 1;
nodes = (
(30,143,l),
(487,143,l),
(487,231,l),
(151,231,l),
(406,650,l),
(306,650,l),
(30,209,l)
);
}
);
width = 487;
},
{
layerId = m004;
shapes = (
{
closed = 1;
nodes = (
(322,650,l),
(322,0,l),
(358,0,l),
(358,650,l)
);
},
{
closed = 1;
nodes = (
(56,143,l),
(433,143,l),
(433,173,l),
(91,173,l),
(355,650,l),
(320,650,l),
(56,173,l)
);
}
);
width = 433;
}
);
unicode = 52;
},
{
glyphname = five;
lastChange = "2025-07-28 02:06:06 +0000";
layers = (
{
layerId = m002;
shapes = (
{
closed = 1;
nodes = (
(362,-16,o),
(441,78,o),
(441,193,cs),
(441,339,o),
(353,409,o),
(191,409,cs),
(137,409,l),
(156,562,l),
(407,562,l),
(407,650,l),
(73,650,l),
(30,304,l),
(64,306,o),
(105,310,o),
(157,310,cs),
(293,310,o),
(330,271,o),
(330,193,cs),
(330,145,o),
(328,79,o),
(182,79,cs),
(144,79,o),
(81,85,o),
(31,95,c),
(31,0,l),
(81,-9,o),
(135,-16,o),
(181,-16,cs)
);
}
);
width = 471;
},
{
background = {
shapes = (
{
closed = 1;
nodes = (
(344,-16,o),
(404,48,o),
(404,158,cs),
(404,294,o),
(307,359,o),
(173,359,c),
(369,627,l),
(369,650,l),
(17,650,l),
(17,618,l),
(320,618,l),
(131,359,l),
(131,330,l),
(328,330,o),
(370,250,o),
(369,158,cs),
(368,61,o),
(311,16,o),
(177,16,cs),
(130,16,o),
(76,21,o),
(30,32,c),
(30,0,l),
(79,-12,o),
(146,-16,o),
(176,-16,cs)
);
}
);
};
layerId = m004;
shapes = (
{
closed = 1;
nodes = (
(344,-16,o),
(404,48,o),
(404,158,cs),
(404,294,o),
(327,359,o),
(131,359,cs),
(83,359,l),
(112,618,l),
(369,618,l),
(369,650,l),
(83,650,l),
(47,330,l),
(64,331,o),
(104,330,o),
(131,330,cs),
(328,330,o),
(370,250,o),
(369,158,cs),
(368,61,o),
(311,16,o),
(180,16,cs),
(130,16,o),
(76,21,o),
(30,32,c),
(30,0,l),
(79,-12,o),
(146,-16,o),
(181,-16,cs)
);
}
);
width = 434;
}
);
unicode = 53;
},
{
glyphname = six;
lastChange = "2025-07-28 01:52:18 +0000";
layers = (
{
layerId = m002;
shapes = (
{
closed = 1;
nodes = (
(371,117,o),
(329,77,o),
(253,77,cs),
(187,77,o),
(145,117,o),
(145,195,cs),
(145,273,o),
(177,322,o),
(253,322,cs),
(329,322,o),
(371,273,o),
(371,195,cs)
);
},
{
closed = 1;
nodes = (
(382,-16,o),
(482,48,o),
(482,193,cs),
(482,338,o),
(382,415,o),
(253,415,cs),
(133,415,o),
(23,352,o),
(34,193,cs),
(45,38,o),
(133,-16,o),
(253,-16,cs)
);
},
{
closed = 1;
nodes = (
(145,193,l),
(143,227,l),
(123,468,o),
(158,571,o),
(279,571,cs),
(317,571,o),
(360,565,o),
(410,555,c),
(410,650,l),
(360,659,o),
(326,666,o),
(280,666,cs),
(279,666,ls),
(143,666,o),
(5,594,o),
(34,193,c),
(34,193,l)
);
}
);
width = 512;
},
{
background = {
shapes = (
{
closed = 1;
nodes = (
(41,172,l),
(39,206,ls),
(19,446,o),
(129,633,o),
(230,634,cs),
(281,634,o),
(335,629,o),
(381,618,c),
(381,650,l),
(332,662,o),
(265,666,o),
(230,666,cs),
(114,666,o),
(-23,593,o),
(6,193,c),
(5,172,l)
);
}
);
};
layerId = m004;
shapes = (
{
closed = 1;
nodes = (
(351,70,o),
(290,16,o),
(190,16,cs),
(102,16,o),
(42,70,o),
(42,172,cs),
(42,275,o),
(87,340,o),
(190,340,cs),
(290,340,o),
(351,275,o),
(351,172,cs)
);
},
{
closed = 1;
nodes = (
(298,-16,o),
(388,42,o),
(388,172,cs),
(388,302,o),
(298,372,o),
(192,372,cs),
(94,372,o),
(-5,315,o),
(5,172,cs),
(15,33,o),
(94,-16,o),
(192,-16,cs)
);
},
{
closed = 1;
nodes = (
(42,172,l),
(42,181,l),
(21,535,o),
(100,636,o),
(221,634,cs),
(261,634,o),
(295,629,o),
(342,618,c),
(342,650,l),
(292,662,o),
(266,666,o),
(222,666,cs),
(221,666,ls),
(91,666,o),
(-24,577,o),
(5,176,c),
(5,172,l)
);
}
);
width = 388;
}
);
unicode = 54;
},
{
glyphname = seven;
lastChange = "2025-07-28 01:51:41 +0000";
layers = (
{
layerId = m002;
shapes = (
{
closed = 1;
nodes = (
(460,650,l),
(30,650,l),
(30,562,l),
(349,562,l),
(116,0,l),
(216,0,l),
(460,584,l)
);
}
);
width = 490;
},
{
layerId = m004;
shapes = (
{
closed = 1;
nodes = (
(366,650,l),
(0,650,l),
(0,618,l),
(323,618,l),
(86,0,l),
(122,0,l),
(366,634,l)
);
}
);
width = 430;
}
);
unicode = 55;
},
{
glyphname = eight;
lastChange = "2025-07-28 02:19:59 +0000";
layers = (
{
layerId = m002;
shapes = (
{
closed = 1;
nodes = (
(141,411,o),
(42,338,o),
(42,193,cs),
(42,48,o),
(132,-16,o),
(270,-16,cs),
(408,-16,o),
(498,48,o),
(498,193,cs),
(498,338,o),
(399,411,o),
(270,411,cs)
);
},
{
closed = 1;
nodes = (
(153,271,o),
(185,320,o),
(270,320,cs),
(355,320,o),
(387,271,o),
(387,193,cs),
(387,115,o),
(345,75,o),
(270,75,cs),
(195,75,o),
(153,115,o),
(153,193,cs)
);
},
{
closed = 1;
nodes = (
(82,384,o),
(161,320,o),
(270,320,cs),
(379,320,o),
(458,384,o),
(458,490,cs),
(458,601,o),
(388,665,o),
(270,665,cs),
(152,665,o),
(82,601,o),
(82,490,cs)
);
},
{
closed = 1;
nodes = (
(193,539,o),
(205,574,o),
(270,574,cs),
(335,574,o),
(347,539,o),
(347,490,cs),
(347,441,o),
(325,411,o),
(270,411,cs),
(215,411,o),
(193,441,o),
(193,490,cs)
);
}
);
width = 540;
},
{
layerId = m004;
shapes = (
{
closed = 1;
nodes = (
(60,42,o),
(142,-16,o),
(260,-16,cs),
(369,-16,o),
(458,42,o),
(458,174,cs),
(458,306,o),
(387,373,o),
(259,373,cs),
(131,373,o),
(60,306,o),
(60,174,cs)
);
},
{
closed = 1;
nodes = (
(96,276,o),
(138,341,o),
(260,341,cs),
(382,341,o),
(422,276,o),
(422,172,cs),
(422,68,o),
(358,16,o),
(260,16,cs),
(148,16,o),
(96,68,o),
(96,172,cs)
);
},
{
closed = 1;
nodes = (
(81,405,o),
(131,341,o),
(260,341,cs),
(389,341,o),
(439,405,o),
(439,501,cs),
(439,602,o),
(369,666,o),
(260,666,cs),
(151,666,o),
(81,602,o),
(81,501,cs)
);
},
{
closed = 1;
nodes = (
(117,573,o),
(152,634,o),
(260,634,cs),
(368,634,o),
(403,573,o),
(403,499,cs),
(403,424,o),
(367,373,o),
(260,373,cs),
(153,373,o),
(117,424,o),
(117,499,cs)
);
}
);
width = 518;
}
);
metricRight = "=|";
unicode = 56;
},
{
glyphname = nine;
lastChange = "2025-07-28 01:53:14 +0000";
layers = (
{
layerId = m002;
shapes = (
{
closed = 1;
nodes = (
(116,533,o),
(158,573,o),
(234,573,cs),
(300,573,o),
(342,533,o),
(342,455,cs),
(342,377,o),
(310,328,o),
(234,328,cs),
(158,328,o),
(116,377,o),
(116,455,cs)
);
},
{
closed = 1;
nodes = (
(105,666,o),
(5,602,o),
(5,457,cs),
(5,312,o),
(105,235,o),
(234,235,cs),
(354,235,o),
(464,298,o),
(453,457,cs),
(442,612,o),
(354,666,o),
(234,666,cs)
);
},
{
closed = 1;
nodes = (
(342,457,l),
(344,423,l),
(364,182,o),
(329,79,o),
(208,79,cs),
(170,79,o),
(127,85,o),
(77,95,c),
(77,0,l),
(127,-9,o),
(161,-16,o),
(207,-16,cs),
(208,-16,ls),
(344,-16,o),
(482,56,o),
(453,457,c),
(453,457,l)
);
}
);
width = 512;
},
{
layerId = m004;
shapes = (
{
closed = 1;
nodes = (
(37,580,o),
(98,634,o),
(198,634,cs),
(286,634,o),
(346,580,o),
(346,478,cs),
(346,375,o),
(301,310,o),
(198,310,cs),
(98,310,o),
(37,375,o),
(37,478,cs)
);
},
{
closed = 1;
nodes = (
(90,666,o),
(0,608,o),
(0,478,cs),
(0,348,o),
(90,278,o),
(196,278,cs),
(294,278,o),
(393,335,o),
(383,478,cs),
(373,617,o),
(294,666,o),
(196,666,cs)
);
},
{
closed = 1;
nodes = (
(346,478,l),
(346,469,l),
(367,115,o),
(288,14,o),
(167,16,cs),
(127,16,o),
(93,21,o),
(46,32,c),
(46,0,l),
(96,-12,o),
(122,-16,o),
(166,-16,cs),
(167,-16,ls),
(297,-16,o),
(412,73,o),
(383,474,c),
(383,478,l)
);
}
);
width = 388;
}
);
unicode = 57;
},
{
glyphname = period;
lastChange = "2025-07-24 16:01:56 +0000";
layers = (
{
layerId = m002;
shapes = (
{
closed = 1;
nodes = (
(132,-16,o),
(157,9,o),
(157,51,cs),
(157,93,o),
(132,118,o),
(90,118,cs),
(48,118,o),
(23,93,o),
(23,51,cs),
(23,9,o),
(48,-16,o),
(90,-16,cs)
);
}
);
width = 180;
},
{
layerId = m004;
shapes = (
{
closed = 1;
nodes = (
(80,-16,o),
(93,-4,o),
(93,17,cs),
(93,37,o),
(80,49,o),
(60,49,cs),
(40,49,o),
(27,37,o),
(27,17,cs),
(27,-4,o),
(40,-16,o),
(60,-16,cs)
);
}
);
width = 120;
}
);
metricRight = "=|";
unicode = 46;
},
{
glyphname = comma;
lastChange = "2025-07-24 16:01:56 +0000";
layers = (
{
layerId = m002;
shapes = (
{
closed = 1;
nodes = (
(124,-127,o),
(157,-55,o),
(157,34,cs),
(157,93,o),
(132,118,o),
(90,118,cs),
(48,118,o),
(23,93,o),
(23,51,cs),
(23,9,o),
(48,-16,o),
(74,-16,cs),
(81,-16,o),
(90,-14,o),
(98,-11,c),
(96,-48,o),
(77,-86,o),
(33,-86,c),
(33,-127,l)
);
}
);
width = 179;
},
{
layerId = m004;
shapes = (
{
closed = 1;
nodes = (
(124,-127,o),
(157,-55,o),
(157,34,cs),
(157,93,o),
(132,118,o),
(90,118,cs),
(48,118,o),
(23,93,o),
(23,51,cs),
(23,9,o),
(48,-16,o),
(74,-16,cs),
(81,-16,o),
(90,-14,o),
(98,-11,c),
(96,-48,o),
(77,-86,o),
(33,-86,c),
(33,-127,l)
);
}
);
width = 179;
}
);
unicode = 44;
},
{
glyphname = exclam;
lastChange = "2025-07-25 03:14:30 +0000";
layers = (
{
layerId = m002;
shapes = (
{
closed = 1;
nodes = (
(184,-16,o),
(207,7,o),
(207,45,cs),
(207,83,o),
(184,106,o),
(146,106,cs),
(108,106,o),
(85,83,o),
(85,45,cs),
(85,7,o),
(108,-16,o),
(146,-16,cs)
);
},
{
closed = 1;
nodes = (
(91,650,l),
(101,164,l),
(190,164,l),
(200,650,l)
);
}
);
width = 292;
},
{
layerId = m004;
shapes = (
{
closed = 1;
nodes = (
(134,-16,o),
(146,-5,o),
(146,15,cs),
(146,33,o),
(134,45,o),
(115,45,cs),
(96,45,o),
(84,33,o),
(84,15,cs),
(84,-5,o),
(96,-16,o),
(115,-16,cs)
);
},
{
closed = 1;
nodes = (
(95,650,l),
(102,134,l),
(125,134,l),
(132,650,l)
);
}
);
width = 230;
}
);
metricLeft = "=H";
metricRight = "=|";
unicode = 33;
},
{
glyphname = question;
lastChange = "2025-07-28 15:26:24 +0000";
layers = (
{
layerId = m004;
width = 600;
},
{
layerId = m002;
shapes = (
{
closed = 1;
nodes = (
(184,-16,o),
(207,7,o),
(207,45,cs),
(207,83,o),
(184,106,o),
(146,106,cs),
(108,106,o),
(85,83,o),
(85,45,cs),
(85,7,o),
(108,-16,o),
(146,-16,cs)
);
},
{
closed = 1;
nodes = (
(91,650,l),
(101,164,l),
(190,164,l),
(200,650,l)
);
}
);
width = 600;
}
);
unicode = 63;
},
{
glyphname = asterisk;
lastChange = "2025-07-24 16:01:56 +0000";
layers = (
{
layerId = m002;
shapes = (
{
closed = 1;
nodes = (
(297,650,l),
(191,650,l),
(206,484,l),
(52,550,l),
(19,448,l),
(183,412,l),
(72,285,l),
(159,223,l),
(244,367,l),
(330,222,l),
(416,285,l),
(305,411,l),
(469,448,l),
(436,549,l),
(282,483,l)
);
}
);
width = 486;
},
{
layerId = m004;
shapes = (
{
closed = 1;
nodes = (
(297,650,l),
(191,650,l),
(206,484,l),
(52,550,l),
(19,448,l),
(183,412,l),
(72,285,l),
(159,223,l),
(244,367,l),
(330,222,l),
(416,285,l),
(305,411,l),
(469,448,l),
(436,549,l),
(282,483,l)
);
}
);
width = 486;
}
);
unicode = 42;
},
{
glyphname = hyphen;
lastChange = "2025-07-24 16:01:56 +0000";
layers = (
{
layerId = m002;
shapes = (
{
closed = 1;
nodes = (
(20,243,l),
(331,243,l),
(331,329,l),
(20,329,l)
);
}
);
width = 351;
},
{
layerId = m004;
shapes = (
{
closed = 1;
nodes = (
(20,243,l),
(331,243,l),
(331,329,l),
(20,329,l)
);
}
);
width = 351;
}
);
unicode = 45;
},
{
glyphname = parenleft;
lastChange = "2025-07-28 00:40:07 +0000";
layers = (
{
layerId = m002;
shapes = (
{
closed = 1;
nodes = (
(85,-29,o),
(141,-142,o),
(236,-137,cs),
(307,-133,l),
(307,-45,l),
(269,-44,ls),
(220,-43,o),
(191,22,o),
(191,284,cs),
(191,536,o),
(220,611,o),
(269,612,cs),
(307,613,l),
(307,701,l),
(236,705,ls),
(141,710,o),
(85,597,o),
(85,284,cs)
);
}
);
width = 352;
},
{
layerId = m004;
shapes = (
{
closed = 1;
nodes = (
(84,-22,o),
(136,-132,o),
(186,-132,cs),
(216,-132,l),
(216,-103,l),
(213,-103,ls),
(155,-103,o),
(121,-13,o),
(121,284,cs),
(121,581,o),
(155,671,o),
(213,671,cs),
(216,671,l),
(216,700,l),
(186,700,ls),
(136,700,o),
(84,590,o),
(84,284,cs)
);
}
);
width = 301;
}
);
metricLeft = "=H";
unicode = 40;
},
{
glyphname = parenright;
lastChange = "2025-07-28 00:40:27 +0000";
layers = (
{
layerId = m002;
shapes = (
{
closed = 1;
nodes = (
(267,597,o),
(211,710,o),
(116,705,cs),
(45,701,l),
(45,613,l),
(83,612,ls),
(132,611,o),
(161,536,o),
(161,284,cs),
(161,22,o),
(132,-43,o),
(83,-44,cs),
(45,-45,l),
(45,-133,l),
(116,-137,ls),
(211,-142,o),
(267,-29,o),
(267,284,cs)
);
}
);
width = 352;
},
{
layerId = m004;
shapes = (
{
closed = 1;
nodes = (
(216,590,o),
(164,700,o),
(114,700,cs),
(84,700,l),
(84,671,l),
(87,671,ls),
(145,671,o),
(179,581,o),
(179,284,cs),
(179,-13,o),
(145,-103,o),
(87,-103,cs),
(84,-103,l),
(84,-132,l),
(114,-132,ls),
(164,-132,o),
(216,-22,o),
(216,284,cs)
);
}
);
width = 300;
}
);
metricRight = "=H";
unicode = 41;
},
{
glyphname = bracketleft;
lastChange = "2025-07-28 02:20:03 +0000";
layers = (
{
layerId = m002;
shapes = (
{
closed = 1;
nodes = (
(297,-148,l),
(297,-60,l),
(234,-60,ls),
(201,-60,o),
(191,-45,o),
(191,-19,cs),
(191,572,ls),
(191,598,o),
(201,613,o),
(234,613,cs),
(297,613,l),
(297,701,l),
(204,701,ls),
(131,701,o),
(85,669,o),
(85,582,cs),
(85,-29,ls),
(85,-116,o),
(131,-148,o),
(204,-148,cs)
);
}
);
width = 307;
},
{
layerId = m004;
shapes = (
{
closed = 1;
nodes = (
(296,-148,l),
(296,-60,l),
(233,-60,ls),
(200,-60,o),
(190,-45,o),
(190,-19,cs),
(190,572,ls),
(190,598,o),
(200,613,o),
(233,613,cs),
(296,613,l),
(296,701,l),
(203,701,ls),
(130,701,o),
(84,669,o),
(84,582,cs),
(84,-29,ls),
(84,-116,o),
(130,-148,o),
(203,-148,cs)
);
}
);
width = 306;
}
);
metricLeft = "=H";
unicode = 91;
},
{
glyphname = bracketright;
lastChange = "2025-07-24 16:01:56 +0000";
layers = (
{
layerId = m002;
shapes = (
{
closed = 1;
nodes = (
(176,-148,o),
(222,-116,o),
(222,-29,cs),
(222,582,ls),
(222,669,o),
(176,701,o),
(103,701,cs),
(10,701,l),
(10,613,l),
(73,613,ls),
(106,613,o),
(116,598,o),
(116,572,cs),
(116,-19,ls),
(116,-45,o),
(106,-60,o),
(73,-60,cs),
(10,-60,l),
(10,-148,l),
(103,-148,ls)
);
}
);
width = 232;
},
{
layerId = m004;
shapes = (
{
closed = 1;
nodes = (
(176,-148,o),
(222,-116,o),
(222,-29,cs),
(222,582,ls),
(222,669,o),
(176,701,o),
(103,701,cs),
(10,701,l),
(10,613,l),
(73,613,ls),
(106,613,o),
(116,598,o),
(116,572,cs),
(116,-19,ls),
(116,-45,o),
(106,-60,o),
(73,-60,cs),
(10,-60,l),
(10,-148,l),
(103,-148,ls)
);
}
);
width = 232;
}
);
unicode = 93;
},
{
glyphname = quoteleft;
lastChange = "2025-07-28 02:23:31 +0000";
layers = (
{
layerId = m004;
shapes = (
{
closed = 1;
nodes = (
(53,694,o),
(23,629,o),
(23,548,cs),
(23,495,o),
(45,472,o),
(83,472,cs),
(121,472,o),
(144,495,o),
(144,533,cs),
(144,571,o),
(121,593,o),
(98,593,cs),
(92,593,o),
(83,591,o),
(76,589,c),
(78,622,o),
(95,657,o),
(135,657,c),
(135,694,l)
);
}
);
width = 600;
},
{
layerId = m002;
shapes = (
{
closed = 1;
nodes = (
(53,694,o),
(23,629,o),
(23,548,cs),
(23,495,o),
(45,472,o),
(83,472,cs),
(121,472,o),
(144,495,o),
(144,533,cs),
(144,571,o),
(121,593,o),
(98,593,cs),
(92,593,o),
(83,591,o),
(76,589,c),
(78,622,o),
(95,657,o),
(135,657,c),
(135,694,l)
);
}
);
width = 144;
}
);
unicode = 8216;
},
{
glyphname = quoteright;
lastChange = "2025-07-28 02:23:35 +0000";
layers = (
{
layerId = m004;
shapes = (
{
closed = 1;
nodes = (
(114,472,o),
(144,537,o),
(144,618,cs),
(144,671,o),
(122,694,o),
(84,694,cs),
(46,694,o),
(23,671,o),
(23,633,cs),
(23,595,o),
(46,573,o),
(69,573,cs),
(75,573,o),
(84,575,o),
(91,577,c),
(89,544,o),
(72,509,o),
(32,509,c),
(32,472,l)
);
}
);
width = 600;
},
{
layerId = m002;
shapes = (
{
closed = 1;
nodes = (
(114,472,o),
(144,537,o),
(144,618,cs),
(144,671,o),
(122,694,o),
(84,694,cs),
(46,694,o),
(23,671,o),
(23,633,cs),
(23,595,o),
(46,573,o),
(69,573,cs),
(75,573,o),
(84,575,o),
(91,577,c),
(89,544,o),
(72,509,o),
(32,509,c),
(32,472,l)
);
}
);
width = 159;
}
);
unicode = 8217;
},
{
glyphname = quotesingle;
lastChange = "2025-07-28 02:23:38 +0000";
layers = (
{
layerId = m004;
shapes = (
{
closed = 1;
nodes = (
(97,481,l),
(115,541,o),
(130,593,o),
(130,628,cs),
(130,671,o),
(108,694,o),
(75,694,cs),
(42,694,o),
(20,671,o),
(20,628,cs),
(20,593,o),
(35,541,o),
(53,481,c)
);
}
);
width = 600;
},
{
background = {
shapes = (
{
closed = 1;
nodes = (
(110,472,o),
(140,537,o),
(140,618,cs),
(140,671,o),
(118,694,o),
(80,694,cs),
(42,694,o),
(19,671,o),
(19,633,cs),
(19,595,o),
(42,573,o),
(65,573,cs),
(71,573,o),
(80,575,o),
(87,577,c),
(85,544,o),
(68,509,o),
(28,509,c),
(28,472,l)
);
}
);
};
layerId = m002;
shapes = (
{
closed = 1;
nodes = (
(97,481,l),
(115,541,o),
(130,593,o),
(130,628,cs),
(130,671,o),
(108,694,o),
(75,694,cs),
(42,694,o),
(20,671,o),
(20,628,cs),
(20,593,o),
(35,541,o),
(53,481,c)
);
}
);
width = 160;
}
);
unicode = 39;
},
